<?xml version="1.0" encoding="utf-8"?>
<!-- Generator: Adobe Illustrator 16.0.0, SVG Export Plug-In . SVG Version: 6.00 Build 0)  -->
<!DOCTYPE svg PUBLIC "-//W3C//DTD SVG 1.1//EN" "http://www.w3.org/Graphics/SVG/1.1/DTD/svg11.dtd">
<svg version="1.1" id="Layer_1" xmlns="http://www.w3.org/2000/svg" xmlns:xlink="http://www.w3.org/1999/xlink" x="0px" y="0px"
	 width="185px" height="210.834px" viewBox="0 0 185 210.834" enable-background="new 0 0 185 210.834" xml:space="preserve">
<g id="Logo">
	<path fill-rule="evenodd" clip-rule="evenodd" fill="#93C051" d="M37.569,68.9c-18.969,0-34.127-15.129-34.176-33.997
		C3.345,16.345,18.745,0.701,38.142,1.004c18.414,0.289,33.653,15.263,33.598,34.15C71.686,53.755,56.39,68.9,37.569,68.9z
		 M37.437,40.713c2.453,0,4.906,0,7.358,0c3.679,0,7.358-0.009,11.037,0.009c0.574,0.002,0.899-0.053,0.883-0.772
		c-0.025-1.108-0.076-2.204-0.345-3.28c-1.214-4.858-4.154-8.39-8.432-10.86c-0.643-0.371-0.888-0.588-0.421-1.332
		c0.846-1.346,1.554-2.778,2.315-4.178c0.24-0.442,0.511-0.944-0.089-1.276c-0.622-0.344-0.868,0.2-1.104,0.626
		c-0.813,1.475-1.637,2.945-2.408,4.442c-0.26,0.506-0.481,0.619-1.043,0.405c-5.171-1.965-10.356-1.95-15.521,0.03
		c-0.503,0.193-0.732,0.149-0.989-0.349c-0.784-1.525-1.624-3.021-2.449-4.525c-0.236-0.43-0.469-0.963-1.099-0.639
		c-0.626,0.321-0.363,0.798-0.114,1.249c0.739,1.342,1.398,2.733,2.227,4.017c0.561,0.869,0.441,1.29-0.485,1.661
		c-0.475,0.19-0.896,0.531-1.315,0.838c-4.395,3.223-7.033,7.424-7.271,12.984c-0.033,0.767,0.201,0.969,0.963,0.965
		C25.234,40.699,31.335,40.713,37.437,40.713z M38.981,45.434c0.104,0,0.208,0,0.312,0c0.227-0.895-0.019-1.831,0.133-2.741
		c0.31,0.03,0.315,0.293,0.42,0.455c0.433,0.665,0.847,1.342,1.269,2.014c0.098,0.156,0.202,0.315,0.42,0.301
		c0.143-0.009,0.216-0.106,0.217-0.241c0.003-1.158,0.002-2.316,0.002-3.475c-0.106,0-0.213,0-0.319-0.001
		c-0.304,0.888-0.025,1.836-0.095,2.938c-0.627-0.986-1.143-1.804-1.665-2.617c-0.114-0.177-0.228-0.381-0.494-0.326
		c-0.135,0.028-0.198,0.138-0.198,0.27C38.98,43.152,38.981,44.293,38.981,45.434z M56.45,45.195
		c-0.382-1.083-0.69-2.214-1.185-3.256c-0.254-0.534-0.596-0.144-0.734,0.246c-0.328,0.92-0.643,1.845-0.953,2.771
		c-0.053,0.157-0.219,0.38,0.002,0.485c0.275,0.13,0.404-0.14,0.427-0.336c0.101-0.828,0.671-0.815,1.282-0.771
		c0.559,0.04,0.497,0.536,0.653,0.869c0.068,0.146,0.147,0.271,0.328,0.261C56.432,45.456,56.45,45.334,56.45,45.195z
		 M23.676,45.479c0.274-0.053,0.345-0.302,0.383-0.534c0.09-0.562,0.465-0.59,0.934-0.631c0.69-0.06,0.803,0.391,0.943,0.87
		c0.058,0.196,0.188,0.334,0.401,0.264c0.118-0.039,0.135-0.18,0.089-0.312c-0.362-1.038-0.695-2.086-1.094-3.108
		c-0.155-0.397-0.527-0.497-0.714-0.022c-0.402,1.021-0.735,2.07-1.094,3.107C23.474,45.258,23.425,45.411,23.676,45.479z
		 M36.073,41.854c-0.411-0.235-0.814-0.089-1.187-0.146c-0.711-0.11-0.899,0.205-0.849,0.874c0.057,0.759,0.007,1.525,0.017,2.288
		c0.003,0.226-0.096,0.57,0.253,0.587c0.61,0.03,1.244,0.182,1.866-0.116c-0.241-0.389-0.579-0.266-0.856-0.257
		c-0.498,0.016-0.792-0.063-0.792-0.682c0-0.581,0.207-0.749,0.75-0.712c0.218,0.015,0.556,0.162,0.665-0.203
		c-0.365-0.489-1.36,0.36-1.393-0.717C34.509,41.556,35.688,42.531,36.073,41.854z M19.838,44.853
		c-0.354-1.092-0.631-1.949-0.908-2.806c-0.06-0.186-0.154-0.375-0.377-0.294c-0.249,0.09-0.12,0.29-0.064,0.46
		c0.305,0.932,0.602,1.865,0.912,2.795c0.064,0.194,0.093,0.452,0.37,0.467c0.317,0.018,0.39-0.238,0.474-0.473
		c0.321-0.894,0.646-1.786,0.963-2.681c0.066-0.186,0.258-0.442-0.021-0.55c-0.26-0.101-0.341,0.187-0.411,0.385
		C20.486,42.978,20.204,43.8,19.838,44.853z M47.46,45.116c-1.665,0.057-2.229-0.209-2.353-1.157
		c-0.225-1.718,0.917-1.975,2.47-1.858c-1.047-0.618-1.963-0.459-2.568,0.268c-0.62,0.745-0.593,1.932,0.059,2.619
		C45.663,45.613,46.617,45.704,47.46,45.116z M31.476,45.38c-0.329-0.331-0.55-0.331-0.752-0.301
		c-0.749,0.109-1.052-0.166-0.973-0.946c0.063-0.634,0.016-1.28,0.011-1.92c-0.002-0.206,0.036-0.478-0.28-0.464
		c-0.242,0.011-0.23,0.24-0.23,0.423c-0.001,0.945,0,1.891-0.001,2.836c0,0.224,0.012,0.46,0.301,0.466
		C30.139,45.486,30.736,45.567,31.476,45.38z M50.214,43.54c0,0.52-0.004,1.04,0.003,1.559c0.001,0.146-0.002,0.333,0.207,0.339
		c0.187,0.006,0.259-0.149,0.26-0.308c0.007-1.008,0.008-2.017,0.005-3.025c0-0.162-0.068-0.342-0.232-0.345
		c-0.253-0.005-0.24,0.226-0.242,0.405C50.209,42.624,50.213,43.082,50.214,43.54z"/>
	<path fill-rule="evenodd" clip-rule="evenodd" fill="#4E4E4E" d="M94.333,34.883c-1.024,0-1.965-0.016-2.906,0.008
		c-0.419,0.011-0.492-0.251-0.592-0.555c-0.297-0.899-0.624-1.788-0.913-2.689c-0.118-0.37-0.29-0.525-0.709-0.518
		c-1.685,0.028-3.37,0.018-5.055,0.007c-0.354-0.002-0.537,0.095-0.648,0.47c-0.269,0.907-0.624,1.789-0.907,2.692
		c-0.14,0.446-0.36,0.645-0.846,0.593c-0.868-0.093-2.075,0.38-2.512-0.195c-0.351-0.463,0.439-1.534,0.735-2.329
		c1.546-4.146,3.12-8.282,4.639-12.439c0.244-0.669,0.499-1.027,1.276-0.922c0.841,0.114,1.895-0.32,2.496,0.168
		c0.553,0.449,0.639,1.473,0.929,2.244c1.561,4.142,3.122,8.283,4.678,12.425C94.114,34.152,94.201,34.472,94.333,34.883z
		 M86.707,22.587c-0.581,1.804-1.27,3.552-1.894,5.325c-0.135,0.383,0.075,0.406,0.354,0.405c1.153-0.002,2.307-0.001,3.55-0.001
		C88.077,26.343,87.297,24.523,86.707,22.587z"/>
	<path fill-rule="evenodd" clip-rule="evenodd" fill="#4E4E4E" d="M117.634,25.346c-0.199-2.018-0.09-3.848-0.141-5.677
		c-0.015-0.532,0.159-0.654,0.673-0.662c2.287-0.033,2.287-0.05,2.287,2.255c0,4.262-0.019,8.525,0.018,12.787
		c0.006,0.705-0.192,0.948-0.871,0.84c-0.209-0.033-0.432-0.029-0.642-0.001c-0.866,0.117-1.53,0.007-1.23-1.391
		c-0.964,1.109-1.903,1.708-3.14,1.757c-1.175,0.047-2.238-0.217-3.206-0.897c-1.935-1.358-2.812-3.885-2.225-6.466
		c0.491-2.161,2.214-3.832,4.38-4.176C115.123,23.464,116.485,23.932,117.634,25.346z M117.655,29.587
		c0.063-1.742-1.104-3.123-2.703-3.2c-1.636-0.079-2.984,1.259-3.028,3.002c-0.042,1.691,1.192,3.09,2.784,3.159
		C116.318,32.618,117.592,31.337,117.655,29.587z"/>
	<path fill-rule="evenodd" clip-rule="evenodd" fill="#4E4E4E" d="M159.601,33.6c-2.079,2.535-5.677,1.903-7.373-0.206
		c-2.137-2.656-1.67-6.874,0.991-8.775c2.001-1.429,4.303-1.276,6.163,0.493c0-1.817,0.041-3.546-0.02-5.272
		c-0.024-0.711,0.192-0.849,0.859-0.837c2.107,0.038,2.107,0.009,2.107,2.143c0,4.292-0.021,8.584,0.021,12.875
		c0.007,0.748-0.223,0.97-0.912,0.868c-0.21-0.032-0.43-0.022-0.643-0.002C159.944,34.97,159.179,34.972,159.601,33.6z
		 M159.566,29.506c0.014-1.743-1.185-3.081-2.795-3.12c-1.623-0.04-2.939,1.344-2.938,3.088c0.002,1.705,1.272,3.071,2.861,3.075
		C158.314,32.554,159.553,31.242,159.566,29.506z"/>
	<path fill-rule="evenodd" clip-rule="evenodd" fill="#4E4E4E" d="M143.186,29.504c-0.002,3.398-2.377,5.76-5.781,5.748
		c-3.375-0.012-5.744-2.419-5.726-5.819c0.018-3.381,2.444-5.799,5.799-5.78C140.834,23.672,143.188,26.085,143.186,29.504z
		 M140.266,29.428c-0.015-1.747-1.257-3.067-2.861-3.042c-1.616,0.025-2.799,1.352-2.778,3.117c0.021,1.767,1.239,3.068,2.853,3.046
		C139.086,32.528,140.281,31.188,140.266,29.428z"/>
	<path fill-rule="evenodd" clip-rule="evenodd" fill="#4E4E4E" d="M99.209,25.491c1.041-1.43,2.349-1.975,3.916-1.812
		c2.14,0.222,3.403,1.521,3.544,3.874c0.137,2.291,0.052,4.595,0.073,6.894c0.003,0.293-0.055,0.484-0.4,0.437
		c-0.029-0.004-0.062-0.002-0.092,0c-2.458,0.181-2.458,0.181-2.458-2.238c0-1.318,0.017-2.636-0.005-3.954
		c-0.023-1.397-0.567-2.129-1.645-2.291c-1.102-0.165-2.131,0.499-2.569,1.645c-0.27,0.708-0.229,1.445-0.229,2.179
		c0.001,1.349-0.02,2.698,0.011,4.046c0.012,0.486-0.146,0.608-0.621,0.625c-2.337,0.08-2.337,0.095-2.337-2.194
		c0-2.575,0.027-5.15-0.018-7.725c-0.013-0.731,0.124-1.11,0.93-0.96c0.148,0.028,0.306,0.004,0.459,0.004
		C99.118,24.021,99.118,24.021,99.209,25.491z"/>
	<path fill-rule="evenodd" clip-rule="evenodd" fill="#4E4E4E" d="M126.274,25.448c1.062-1.301,2.319-2.068,4.056-1.675
		c0.642,0.146,0.922,0.424,0.588,1.078c-0.055,0.106-0.059,0.236-0.093,0.354c-0.382,1.312-0.382,1.312-1.745,1.274
		c-1.382-0.038-2.466,0.9-2.648,2.395c-0.212,1.736-0.081,3.485-0.07,5.228c0.005,0.662-0.204,0.804-0.827,0.798
		c-2.139-0.019-2.14,0.005-2.14-2.131c0-2.663,0.016-5.326-0.011-7.988c-0.006-0.583,0.135-0.872,0.76-0.762
		c0.119,0.021,0.245,0.003,0.367,0.003C126.007,24.021,126.007,24.021,126.274,25.448z"/>
	<path fill-rule="evenodd" clip-rule="evenodd" fill="#4E4E4E" d="M150.634,45.312c0.368,0,0.736,0,1.104,0
		c1.261,0,1.33,0.083,1.133,1.373c-0.362,2.372-2.121,3.869-4.586,3.904c-2.374,0.034-4.57-1.742-4.898-4.017
		c-0.311-2.157,0.34-3.945,2.212-5.169c1.596-1.045,3.929-0.96,5.485,0.077c0.659,0.44,0.58,0.747,0.044,1.209
		c-0.342,0.294-0.465,0.02-0.666-0.124c-1.265-0.902-2.902-1.005-4.146-0.215c-1.461,0.928-1.926,2.311-1.693,3.968
		c0.209,1.487,1.268,2.632,2.733,2.992c1.874,0.46,3.699-0.506,4.2-2.196c0.144-0.486,0.139-0.742-0.486-0.705
		c-0.765,0.045-1.534-0.016-2.3,0.02c-0.505,0.024-0.518-0.248-0.533-0.625c-0.019-0.436,0.192-0.507,0.558-0.496
		C149.407,45.326,150.021,45.312,150.634,45.312z"/>
	<path fill-rule="evenodd" clip-rule="evenodd" fill="#4E4E4E" d="M145.546,29.471c0-1.596,0.019-3.191-0.012-4.786
		c-0.01-0.515,0.133-0.67,0.663-0.678c2.296-0.038,2.296-0.057,2.296,2.265c0,2.607-0.022,5.215,0.016,7.822
		c0.01,0.656-0.187,0.811-0.818,0.806c-2.145-0.018-2.145,0.008-2.145-2.116C145.546,31.68,145.546,30.575,145.546,29.471z"/>
	<path fill-rule="evenodd" clip-rule="evenodd" fill="#4E4E4E" d="M78.849,45.629c0-1.348,0.015-2.697-0.008-4.044
		c-0.008-0.476,0.062-0.744,0.637-0.699c1.277,0.1,2.573-0.162,3.837,0.202c2.251,0.648,3.403,2.527,3.193,5.21
		c-0.161,2.055-1.717,3.746-3.802,3.978c-1.121,0.125-2.264,0.04-3.396,0.077c-0.467,0.015-0.466-0.255-0.464-0.587
		C78.853,48.387,78.849,47.008,78.849,45.629z M80.048,45.533c0,0.612,0,1.224,0,1.836c0,1.984,0,1.984,2.016,1.823
		c1.596-0.127,2.689-0.946,3.083-2.307c0.796-2.754-0.77-4.841-3.642-4.852c-0.306-0.001-0.615,0.028-0.917-0.007
		c-0.462-0.054-0.561,0.147-0.549,0.571C80.067,43.575,80.048,44.554,80.048,45.533z"/>
	<path fill-rule="evenodd" clip-rule="evenodd" fill="#4E4E4E" d="M175.307,49.646c0,1.072-0.018,2.015,0.009,2.956
		c0.013,0.458-0.105,0.644-0.609,0.646c-0.496,0.003-0.61-0.164-0.606-0.628c0.019-2.633-0.004-5.267,0.027-7.899
		c0.003-0.273-0.333-0.77,0.322-0.854c0.552-0.071,0.914,0.063,0.83,0.761c1.744-1.297,3.237-1.272,4.405,0.004
		c1.229,1.342,1.269,3.504,0.091,4.872C178.644,50.818,177.083,50.91,175.307,49.646z M177.296,44.784
		c-1.18,0.02-2.061,1.03-2.049,2.35c0.014,1.398,0.891,2.322,2.176,2.29c1.186-0.029,2.023-1.028,1.992-2.375
		C179.385,45.717,178.492,44.764,177.296,44.784z"/>
	<path fill-rule="evenodd" clip-rule="evenodd" fill="#4E4E4E" d="M121.189,49.646c0,1.072-0.019,2.015,0.008,2.956
		c0.013,0.458-0.105,0.644-0.608,0.646c-0.497,0.003-0.61-0.164-0.607-0.628c0.019-2.633-0.004-5.267,0.027-7.899
		c0.003-0.273-0.332-0.77,0.322-0.854c0.552-0.071,0.914,0.063,0.83,0.761c1.745-1.297,3.237-1.272,4.405,0.004
		c1.229,1.342,1.269,3.504,0.091,4.872C124.525,50.818,122.965,50.91,121.189,49.646z M123.195,49.423
		c1.226,0.011,2.077-0.906,2.102-2.266c0.024-1.327-0.835-2.341-2.01-2.371c-1.236-0.032-2.157,0.961-2.158,2.329
		C121.128,48.468,121.974,49.412,123.195,49.423z"/>
	<path fill-rule="evenodd" clip-rule="evenodd" fill="#4E4E4E" d="M105.344,47.339c-0.612,0-1.228,0.038-1.836-0.009
		c-0.739-0.058-0.737,0.27-0.521,0.811c0.558,1.393,2.302,1.737,3.39,0.67c0.185-0.181,0.244-0.542,0.7-0.373
		c0.771,0.287,0.844,0.422,0.314,1.038c-1.056,1.227-3.101,1.465-4.416,0.515c-1.453-1.049-1.849-3.279-0.862-4.858
		c0.869-1.392,2.729-1.91,4.188-1.147c1.157,0.604,1.555,1.655,1.634,2.881c0.023,0.354-0.123,0.488-0.48,0.478
		C106.752,47.326,106.047,47.339,105.344,47.339z M104.817,46.294c0.397,0,0.797,0.016,1.193-0.007
		c0.188-0.011,0.458,0.133,0.551-0.155c0.07-0.218-0.062-0.41-0.185-0.59c-0.426-0.626-1.047-0.794-1.76-0.757
		c-0.673,0.035-1.141,0.39-1.471,0.949c-0.266,0.448-0.084,0.591,0.386,0.565C103.96,46.276,104.389,46.294,104.817,46.294z"/>
	<path fill-rule="evenodd" clip-rule="evenodd" fill="#4E4E4E" d="M131.382,47.339c-0.644,0-1.291,0.039-1.931-0.01
		c-0.701-0.054-0.667,0.252-0.481,0.753c0.54,1.458,2.381,1.876,3.411,0.684c0.485-0.563,0.871-0.325,1.207-0.053
		c0.482,0.39-0.107,0.642-0.29,0.847c-1.05,1.177-3.097,1.347-4.355,0.411c-1.422-1.059-1.803-3.208-0.851-4.802
		c0.819-1.372,2.619-1.918,4.103-1.246c1.02,0.462,1.771,1.744,1.766,2.918c-0.002,0.428-0.183,0.515-0.554,0.504
		C132.731,47.326,132.057,47.339,131.382,47.339z M130.854,46.294c0.395,0,0.792-0.025,1.185,0.006
		c0.664,0.053,0.631-0.266,0.391-0.693c-0.595-1.06-2.355-1.124-3.118-0.114c-0.145,0.191-0.354,0.4-0.273,0.643
		c0.103,0.311,0.416,0.134,0.632,0.15C130.062,46.315,130.458,46.294,130.854,46.294z"/>
	<path fill-rule="evenodd" clip-rule="evenodd" fill="#4E4E4E" d="M91.29,47.339c-0.613,0-1.23,0.043-1.838-0.011
		c-0.697-0.062-0.683,0.292-0.527,0.764c0.461,1.393,2.298,1.792,3.385,0.76c0.183-0.173,0.214-0.575,0.687-0.427
		c0.791,0.248,0.882,0.472,0.312,1.097c-1.113,1.217-3.108,1.41-4.431,0.428c-1.36-1.01-1.751-3.183-0.853-4.734
		c0.808-1.395,2.56-1.959,4.08-1.314c1.073,0.456,1.853,1.785,1.789,2.975c-0.02,0.36-0.136,0.48-0.489,0.47
		C92.7,47.325,91.995,47.339,91.29,47.339z M90.799,46.294c0.396,0,0.792,0.012,1.187-0.005c0.19-0.009,0.449,0.118,0.553-0.145
		c0.088-0.221-0.074-0.408-0.187-0.584c-0.656-1.022-2.32-1.074-3.064-0.091c-0.159,0.21-0.402,0.455-0.255,0.72
		c0.128,0.229,0.442,0.088,0.672,0.1C90.068,46.309,90.434,46.294,90.799,46.294z"/>
	<path fill-rule="evenodd" clip-rule="evenodd" fill="#4E4E4E" d="M115.282,43.656c1.945-0.017,3.381,1.44,3.391,3.44
		c0.011,1.99-1.434,3.491-3.354,3.488c-1.896-0.004-3.302-1.44-3.336-3.407C111.948,45.17,113.352,43.672,115.282,43.656z
		 M113.213,47.096c-0.008,1.373,0.812,2.305,2.047,2.328c1.296,0.023,2.169-0.893,2.184-2.291c0.014-1.367-0.896-2.367-2.145-2.358
		C114.097,44.784,113.22,45.76,113.213,47.096z"/>
	<path fill-rule="evenodd" clip-rule="evenodd" fill="#4E4E4E" d="M161.935,43.657c1.948,0,3.344,1.451,3.34,3.475
		c-0.004,1.992-1.46,3.483-3.374,3.455c-1.904-0.028-3.278-1.468-3.285-3.443C158.608,45.108,159.989,43.657,161.935,43.657z
		 M159.844,47.13c0.007,1.386,0.816,2.284,2.069,2.293c1.271,0.01,2.159-0.944,2.162-2.324c0.003-1.338-0.947-2.345-2.192-2.323
		C160.688,44.798,159.838,45.78,159.844,47.13z"/>
	<path fill-rule="evenodd" clip-rule="evenodd" fill="#4E4E4E" d="M171.229,49.423c-0.716,0.81-1.385,1.147-2.188,1.156
		c-1.431,0.016-2.372-0.888-2.438-2.415c-0.054-1.253,0.01-2.511-0.023-3.765c-0.014-0.488,0.205-0.535,0.601-0.54
		c0.435-0.007,0.672,0.05,0.651,0.583c-0.041,1.07-0.028,2.143-0.004,3.214c0.027,1.259,0.456,1.75,1.483,1.766
		c1.019,0.016,1.754-0.666,1.808-1.772c0.049-0.977,0.007-1.958,0.014-2.938c0.003-0.426-0.165-0.884,0.625-0.873
		c0.812,0.012,0.595,0.507,0.599,0.914c0.012,1.622,0.008,3.245,0.002,4.867c-0.002,0.335,0.149,0.73-0.482,0.745
		C171.307,50.38,171.076,50.211,171.229,49.423z"/>
	<path fill-rule="evenodd" clip-rule="evenodd" fill="#4E4E4E" d="M94.585,43.952c1.031-0.316,1.439,0.107,1.714,0.984
		c0.408,1.303,0.959,2.561,1.5,3.97c0.554-1.428,1.058-2.724,1.559-4.022c0.4-1.039,0.398-1.04,1.666-0.975
		c-0.845,2.069-1.682,4.101-2.501,6.139c-0.186,0.46-0.558,0.244-0.857,0.296c-0.358,0.062-0.549-0.102-0.683-0.439
		C96.197,47.927,95.394,45.955,94.585,43.952z"/>
	<path fill-rule="evenodd" clip-rule="evenodd" fill="#4E4E4E" d="M110.636,45.612c0,1.379-0.022,2.758,0.012,4.136
		c0.013,0.49-0.132,0.63-0.613,0.613c-0.436-0.016-0.647-0.067-0.643-0.597c0.029-2.757,0.027-5.515,0.002-8.273
		c-0.005-0.502,0.164-0.613,0.625-0.611c0.448,0.001,0.646,0.075,0.631,0.596C110.608,42.854,110.636,44.233,110.636,45.612z"/>
	<path fill-rule="evenodd" clip-rule="evenodd" fill="#4E4E4E" d="M136.502,44.985c0.719-0.939,1.362-1.353,2.236-1.293
		c0.251,0.017,0.651-0.039,0.583,0.365c-0.057,0.334,0.027,0.823-0.532,0.907c-1.903,0.288-2.138,0.569-2.138,2.529
		c0,0.703-0.022,1.407,0.008,2.109c0.021,0.491-0.013,0.776-0.655,0.771c-0.616-0.005-0.593-0.298-0.589-0.73
		c0.015-1.62-0.015-3.241,0.024-4.86c0.007-0.318-0.358-0.866,0.444-0.933C136.64,43.786,136.62,44.213,136.502,44.985z"/>
	<path fill-rule="evenodd" clip-rule="evenodd" fill="#4E4E4E" d="M145.116,20.694c0.01-1.054,0.8-1.845,1.855-1.857
		c1.07-0.012,1.93,0.84,1.92,1.903c-0.011,1.018-0.849,1.85-1.875,1.861C145.925,22.613,145.106,21.792,145.116,20.694z"/>
	<path fill-rule="evenodd" clip-rule="evenodd" fill="#4E4E4E" d="M155.355,44.881c0.714-0.838,1.38-1.288,2.295-1.186
		c0.225,0.025,0.595,0.003,0.504,0.342c-0.089,0.33,0.026,0.833-0.531,0.927c-1.955,0.33-2.135,0.548-2.135,2.527
		c0,0.706-0.028,1.412,0.009,2.115c0.027,0.517-0.056,0.767-0.677,0.764c-0.604-0.002-0.604-0.28-0.599-0.722
		c0.017-1.656-0.007-3.312,0.018-4.967c0.005-0.315-0.274-0.788,0.463-0.838C155.431,43.793,155.392,44.197,155.355,44.881z"/>
	<path fill-rule="evenodd" clip-rule="evenodd" fill="#FDFDFD" d="M37.437,40.713c-6.101,0-12.202-0.014-18.303,0.017
		c-0.763,0.004-0.996-0.199-0.963-0.965c0.239-5.56,2.877-9.762,7.271-12.984c0.419-0.308,0.84-0.648,1.315-0.838
		c0.927-0.371,1.046-0.792,0.485-1.661c-0.828-1.283-1.488-2.675-2.227-4.017c-0.249-0.451-0.512-0.928,0.114-1.249
		c0.63-0.324,0.863,0.209,1.099,0.639c0.825,1.504,1.665,3,2.449,4.525c0.256,0.499,0.485,0.542,0.989,0.349
		c5.165-1.98,10.35-1.995,15.521-0.03c0.562,0.213,0.783,0.101,1.043-0.405c0.771-1.498,1.594-2.967,2.408-4.442
		c0.236-0.427,0.482-0.971,1.104-0.626c0.601,0.333,0.33,0.834,0.089,1.276c-0.761,1.399-1.469,2.832-2.315,4.178
		c-0.467,0.743-0.221,0.96,0.421,1.332c4.277,2.47,7.218,6.001,8.432,10.86c0.269,1.076,0.32,2.172,0.345,3.28
		c0.016,0.719-0.309,0.774-0.883,0.772c-3.679-0.019-7.358-0.009-11.037-0.009C42.342,40.713,39.889,40.713,37.437,40.713z
		 M28.646,33.924c1.014-0.004,1.829-0.789,1.85-1.782c0.021-0.989-0.891-1.884-1.888-1.854c-1.011,0.03-1.79,0.839-1.779,1.847
		C26.84,33.154,27.626,33.928,28.646,33.924z M46.227,33.924c1.02,0.001,1.802-0.774,1.81-1.794c0.008-1-0.785-1.818-1.783-1.841
		c-1.008-0.023-1.893,0.853-1.881,1.86C44.383,33.129,45.211,33.922,46.227,33.924z"/>
	<path fill-rule="evenodd" clip-rule="evenodd" fill="#FDFDFD" d="M38.981,45.434c0-1.141-0.001-2.281,0.001-3.422
		c0-0.131,0.063-0.242,0.198-0.27c0.266-0.055,0.38,0.149,0.494,0.326c0.521,0.813,1.038,1.63,1.665,2.617
		c0.07-1.102-0.209-2.05,0.095-2.938c0.106,0,0.213,0,0.319,0.001c0,1.159,0.001,2.317-0.002,3.475c0,0.134-0.074,0.231-0.217,0.241
		c-0.218,0.014-0.322-0.146-0.42-0.301c-0.422-0.672-0.836-1.349-1.269-2.014c-0.105-0.162-0.11-0.425-0.42-0.455
		c-0.152,0.91,0.094,1.846-0.133,2.741C39.189,45.434,39.085,45.434,38.981,45.434z"/>
	<path fill-rule="evenodd" clip-rule="evenodd" fill="#FDFDFD" d="M56.45,45.195c0,0.14-0.018,0.261-0.18,0.269
		c-0.181,0.009-0.26-0.115-0.328-0.261c-0.156-0.333-0.094-0.829-0.653-0.869c-0.611-0.044-1.182-0.057-1.282,0.771
		c-0.023,0.196-0.152,0.466-0.427,0.336c-0.221-0.104-0.055-0.328-0.002-0.485c0.31-0.926,0.625-1.851,0.953-2.771
		c0.138-0.389,0.48-0.779,0.734-0.246C55.76,42.981,56.068,44.111,56.45,45.195z M54.904,42.325
		c-0.116,0.371-0.225,0.709-0.327,1.048c-0.048,0.16-0.213,0.354,0.014,0.476c0.218,0.116,0.483,0.105,0.704-0.003
		c0.222-0.109,0.115-0.334,0.053-0.48C55.207,43.037,55.212,42.644,54.904,42.325z"/>
	<path fill-rule="evenodd" clip-rule="evenodd" fill="#FDFDFD" d="M23.676,45.479c-0.251-0.068-0.203-0.221-0.152-0.367
		c0.359-1.038,0.692-2.086,1.094-3.107c0.187-0.475,0.559-0.375,0.714,0.022c0.399,1.022,0.732,2.071,1.094,3.108
		c0.046,0.132,0.029,0.273-0.089,0.312c-0.213,0.07-0.344-0.068-0.401-0.264c-0.14-0.479-0.253-0.929-0.943-0.87
		c-0.469,0.041-0.844,0.068-0.934,0.631C24.021,45.177,23.951,45.426,23.676,45.479z M24.944,42.217
		c-0.161,0.475-0.277,0.804-0.384,1.136c-0.052,0.163-0.195,0.36,0.011,0.487c0.215,0.132,0.481,0.106,0.706,0.014
		c0.234-0.096,0.12-0.315,0.072-0.474C25.246,43.037,25.114,42.701,24.944,42.217z"/>
	<path fill-rule="evenodd" clip-rule="evenodd" fill="#FDFDFD" d="M36.073,41.854c-0.385,0.677-1.564-0.298-1.527,0.916
		c0.033,1.077,1.028,0.228,1.393,0.717c-0.109,0.365-0.447,0.218-0.665,0.203c-0.543-0.037-0.75,0.131-0.75,0.712
		c0,0.619,0.294,0.698,0.792,0.682c0.277-0.009,0.615-0.132,0.856,0.257c-0.622,0.297-1.256,0.146-1.866,0.116
		c-0.349-0.017-0.25-0.362-0.253-0.587c-0.009-0.763,0.04-1.529-0.017-2.288c-0.05-0.669,0.138-0.984,0.849-0.874
		C35.259,41.765,35.663,41.619,36.073,41.854z"/>
	<path fill-rule="evenodd" clip-rule="evenodd" fill="#FDFDFD" d="M19.838,44.853c0.365-1.052,0.647-1.875,0.937-2.695
		c0.07-0.198,0.151-0.486,0.411-0.385c0.279,0.108,0.087,0.364,0.021,0.55c-0.317,0.895-0.643,1.787-0.963,2.681
		c-0.084,0.234-0.157,0.491-0.474,0.473c-0.277-0.016-0.306-0.273-0.37-0.467c-0.31-0.93-0.606-1.864-0.912-2.795
		c-0.056-0.17-0.185-0.37,0.064-0.46c0.223-0.081,0.317,0.108,0.377,0.294C19.207,42.904,19.485,43.76,19.838,44.853z"/>
	<path fill-rule="evenodd" clip-rule="evenodd" fill="#FDFDFD" d="M47.46,45.116c-0.843,0.588-1.797,0.498-2.392-0.129
		c-0.652-0.687-0.679-1.874-0.059-2.619c0.604-0.727,1.521-0.885,2.568-0.268c-1.553-0.117-2.695,0.14-2.47,1.858
		C45.23,44.907,45.795,45.172,47.46,45.116z"/>
	<path fill-rule="evenodd" clip-rule="evenodd" fill="#FDFDFD" d="M31.476,45.38c-0.74,0.187-1.337,0.106-1.924,0.094
		c-0.29-0.006-0.302-0.242-0.301-0.466c0.001-0.945,0-1.891,0.001-2.836c0-0.183-0.011-0.412,0.23-0.423
		c0.316-0.014,0.278,0.258,0.28,0.464c0.005,0.64,0.052,1.286-0.011,1.92c-0.079,0.781,0.224,1.056,0.973,0.946
		C30.926,45.05,31.147,45.049,31.476,45.38z"/>
	<path fill-rule="evenodd" clip-rule="evenodd" fill="#FDFDFD" d="M50.213,43.54c0-0.458-0.004-0.917,0.001-1.375
		c0.002-0.179-0.011-0.41,0.242-0.405c0.165,0.003,0.232,0.184,0.232,0.345c0.002,1.008,0.002,2.017-0.005,3.025
		c-0.001,0.159-0.073,0.314-0.26,0.308c-0.208-0.007-0.205-0.194-0.207-0.339C50.21,44.58,50.214,44.06,50.213,43.54z"/>
	<path fill-rule="evenodd" clip-rule="evenodd" fill="#93C051" d="M28.646,33.924c-1.02,0.004-1.806-0.771-1.817-1.79
		c-0.011-1.008,0.768-1.817,1.779-1.847c0.998-0.03,1.909,0.866,1.888,1.854C30.475,33.135,29.66,33.92,28.646,33.924z"/>
	<path fill-rule="evenodd" clip-rule="evenodd" fill="#93C051" d="M46.227,33.924c-1.015-0.001-1.844-0.794-1.855-1.775
		c-0.011-1.008,0.874-1.883,1.881-1.86c0.998,0.022,1.791,0.841,1.783,1.841C48.028,33.15,47.247,33.925,46.227,33.924z"/>
	<path fill-rule="evenodd" clip-rule="evenodd" fill="#93C051" d="M54.904,42.325c0.308,0.319,0.303,0.711,0.444,1.041
		c0.062,0.146,0.169,0.371-0.053,0.48c-0.221,0.108-0.486,0.119-0.704,0.003c-0.227-0.121-0.062-0.315-0.014-0.476
		C54.679,43.034,54.788,42.696,54.904,42.325z"/>
	<path fill-rule="evenodd" clip-rule="evenodd" fill="#93C051" d="M24.944,42.217c0.17,0.483,0.302,0.819,0.405,1.164
		c0.047,0.159,0.162,0.377-0.072,0.474c-0.225,0.092-0.491,0.118-0.706-0.014c-0.207-0.127-0.063-0.324-0.011-0.487
		C24.667,43.021,24.783,42.692,24.944,42.217z"/>
</g>
<g id="Logo-gray">
	<path fill-rule="evenodd" clip-rule="evenodd" fill="#BABABA" d="M37.569,139.031c-18.969,0-34.127-15.129-34.176-33.998
		C3.345,86.477,18.745,70.832,38.142,71.136c18.414,0.289,33.653,15.263,33.598,34.149C71.686,123.887,56.39,139.031,37.569,139.031
		z M37.437,110.844c2.453,0,4.906,0,7.358,0c3.679,0,7.358-0.008,11.037,0.01c0.574,0.002,0.899-0.053,0.883-0.771
		c-0.025-1.107-0.076-2.205-0.345-3.281c-1.214-4.857-4.154-8.389-8.432-10.859c-0.643-0.371-0.888-0.588-0.421-1.332
		c0.846-1.345,1.554-2.777,2.315-4.177c0.24-0.441,0.511-0.943-0.089-1.276c-0.622-0.344-0.868,0.2-1.104,0.626
		c-0.813,1.476-1.637,2.944-2.408,4.442c-0.26,0.505-0.481,0.619-1.043,0.406c-5.171-1.965-10.356-1.951-15.521,0.029
		c-0.503,0.193-0.732,0.15-0.989-0.349c-0.784-1.524-1.624-3.021-2.449-4.524c-0.236-0.43-0.469-0.963-1.099-0.639
		c-0.626,0.321-0.363,0.798-0.114,1.25c0.739,1.342,1.398,2.732,2.227,4.016c0.561,0.869,0.441,1.291-0.485,1.662
		c-0.475,0.189-0.896,0.529-1.315,0.838c-4.395,3.223-7.033,7.424-7.271,12.984c-0.033,0.766,0.201,0.969,0.963,0.965
		C25.234,110.83,31.335,110.844,37.437,110.844z M38.981,115.564c0.104,0,0.208,0,0.312,0c0.227-0.895-0.019-1.83,0.133-2.74
		c0.31,0.029,0.315,0.293,0.42,0.455c0.433,0.666,0.847,1.342,1.269,2.014c0.098,0.156,0.202,0.316,0.42,0.303
		c0.143-0.01,0.216-0.107,0.217-0.242c0.003-1.158,0.002-2.316,0.002-3.475c-0.106,0-0.213,0-0.319,0
		c-0.304,0.887-0.025,1.836-0.095,2.938c-0.627-0.986-1.143-1.805-1.665-2.617c-0.114-0.178-0.228-0.381-0.494-0.326
		c-0.135,0.027-0.198,0.139-0.198,0.27C38.98,113.283,38.981,114.424,38.981,115.564z M56.45,115.326
		c-0.382-1.084-0.69-2.215-1.185-3.256c-0.254-0.533-0.596-0.145-0.734,0.246c-0.328,0.92-0.643,1.844-0.953,2.77
		c-0.053,0.158-0.219,0.381,0.002,0.486c0.275,0.129,0.404-0.141,0.427-0.336c0.101-0.828,0.671-0.816,1.282-0.771
		c0.559,0.039,0.497,0.535,0.653,0.869c0.068,0.146,0.147,0.27,0.328,0.262C56.432,115.586,56.45,115.465,56.45,115.326z
		 M23.676,115.609c0.274-0.053,0.345-0.301,0.383-0.533c0.09-0.562,0.465-0.59,0.934-0.631c0.69-0.061,0.803,0.391,0.943,0.869
		c0.058,0.197,0.188,0.334,0.401,0.264c0.118-0.037,0.135-0.18,0.089-0.311c-0.362-1.039-0.695-2.086-1.094-3.109
		c-0.155-0.396-0.527-0.496-0.714-0.021c-0.402,1.021-0.735,2.068-1.094,3.107C23.474,115.389,23.425,115.543,23.676,115.609z
		 M36.073,111.984c-0.411-0.234-0.814-0.088-1.187-0.146c-0.711-0.109-0.899,0.205-0.849,0.875c0.057,0.758,0.007,1.525,0.017,2.287
		c0.003,0.227-0.096,0.57,0.253,0.588c0.61,0.029,1.244,0.182,1.866-0.115c-0.241-0.389-0.579-0.266-0.856-0.258
		c-0.498,0.016-0.792-0.062-0.792-0.682c0-0.582,0.207-0.75,0.75-0.713c0.218,0.016,0.556,0.162,0.665-0.203
		c-0.365-0.488-1.36,0.361-1.393-0.717C34.509,111.688,35.688,112.662,36.073,111.984z M19.838,114.984
		c-0.354-1.094-0.631-1.949-0.908-2.807c-0.06-0.186-0.154-0.375-0.377-0.295c-0.249,0.092-0.12,0.291-0.064,0.461
		c0.305,0.932,0.602,1.865,0.912,2.795c0.064,0.195,0.093,0.451,0.37,0.467c0.317,0.02,0.39-0.238,0.474-0.473
		c0.321-0.893,0.646-1.785,0.963-2.68c0.066-0.186,0.258-0.441-0.021-0.551c-0.26-0.1-0.341,0.188-0.411,0.387
		C20.486,113.109,20.204,113.932,19.838,114.984z M47.46,115.246c-1.665,0.057-2.229-0.209-2.353-1.156
		c-0.225-1.719,0.917-1.975,2.47-1.857c-1.047-0.619-1.963-0.461-2.568,0.268c-0.62,0.744-0.593,1.932,0.059,2.617
		C45.663,115.744,46.617,115.834,47.46,115.246z M31.476,115.512c-0.329-0.332-0.55-0.33-0.752-0.301
		c-0.749,0.109-1.052-0.166-0.973-0.947c0.063-0.633,0.016-1.279,0.011-1.92c-0.002-0.205,0.036-0.477-0.28-0.463
		c-0.242,0.01-0.23,0.24-0.23,0.422c-0.001,0.945,0,1.891-0.001,2.836c0,0.225,0.012,0.461,0.301,0.467
		C30.139,115.617,30.736,115.697,31.476,115.512z M50.214,113.672c0,0.52-0.004,1.039,0.003,1.559
		c0.001,0.145-0.002,0.332,0.207,0.34c0.187,0.006,0.259-0.15,0.26-0.309c0.007-1.008,0.008-2.018,0.005-3.025
		c0-0.162-0.068-0.342-0.232-0.346c-0.253-0.004-0.24,0.227-0.242,0.406C50.209,112.754,50.213,113.213,50.214,113.672z"/>
	<path fill-rule="evenodd" clip-rule="evenodd" fill="#4E4E4E" d="M94.333,105.014c-1.024,0-1.966-0.016-2.905,0.008
		c-0.42,0.012-0.492-0.25-0.593-0.555c-0.297-0.898-0.624-1.787-0.913-2.689c-0.117-0.369-0.289-0.523-0.709-0.518
		c-1.686,0.029-3.37,0.018-5.055,0.008c-0.354-0.002-0.537,0.094-0.648,0.471c-0.269,0.906-0.624,1.787-0.907,2.691
		c-0.14,0.447-0.36,0.645-0.846,0.594c-0.868-0.094-2.075,0.379-2.512-0.195c-0.351-0.463,0.439-1.535,0.735-2.33
		c1.546-4.146,3.12-8.282,4.639-12.439c0.244-0.668,0.498-1.027,1.275-0.922c0.842,0.114,1.895-0.32,2.496,0.168
		c0.553,0.449,0.639,1.472,0.93,2.244c1.561,4.142,3.121,8.283,4.678,12.425C94.114,104.283,94.201,104.604,94.333,105.014z
		 M86.707,92.719c-0.58,1.804-1.27,3.552-1.894,5.324c-0.135,0.383,0.075,0.406,0.354,0.406c1.152-0.002,2.307-0.002,3.549-0.002
		C88.076,96.475,87.297,94.654,86.707,92.719z"/>
	<path fill-rule="evenodd" clip-rule="evenodd" fill="#4E4E4E" d="M117.634,95.477c-0.199-2.017-0.09-3.847-0.141-5.676
		c-0.015-0.532,0.159-0.654,0.673-0.662c2.287-0.033,2.287-0.05,2.287,2.254c0,4.263-0.019,8.525,0.018,12.787
		c0.006,0.705-0.192,0.949-0.871,0.84c-0.209-0.033-0.432-0.029-0.642,0c-0.866,0.117-1.53,0.008-1.23-1.391
		c-0.964,1.107-1.903,1.707-3.14,1.756c-1.175,0.049-2.238-0.217-3.206-0.896c-1.935-1.357-2.812-3.885-2.225-6.465
		c0.491-2.162,2.214-3.833,4.38-4.176C115.123,93.596,116.485,94.063,117.634,95.477z M117.655,99.719
		c0.063-1.742-1.104-3.123-2.703-3.201c-1.636-0.078-2.984,1.26-3.028,3.004c-0.042,1.689,1.192,3.09,2.784,3.158
		C116.318,102.748,117.592,101.469,117.655,99.719z"/>
	<path fill-rule="evenodd" clip-rule="evenodd" fill="#4E4E4E" d="M159.601,103.73c-2.079,2.535-5.677,1.904-7.373-0.205
		c-2.137-2.656-1.67-6.873,0.991-8.775c2.001-1.428,4.303-1.275,6.163,0.494c0-1.817,0.041-3.546-0.02-5.273
		c-0.024-0.711,0.192-0.848,0.859-0.836c2.107,0.038,2.107,0.009,2.107,2.143c0,4.291-0.021,8.583,0.021,12.875
		c0.007,0.748-0.223,0.971-0.912,0.867c-0.21-0.031-0.43-0.021-0.643-0.002C159.944,105.102,159.179,105.104,159.601,103.73z
		 M159.566,99.637c0.014-1.742-1.185-3.08-2.795-3.119c-1.623-0.039-2.939,1.344-2.938,3.088c0.002,1.705,1.272,3.07,2.861,3.074
		C158.314,102.686,159.553,101.373,159.566,99.637z"/>
	<path fill-rule="evenodd" clip-rule="evenodd" fill="#4E4E4E" d="M143.186,99.635c-0.002,3.398-2.377,5.76-5.781,5.748
		c-3.375-0.012-5.744-2.418-5.726-5.818c0.018-3.381,2.444-5.799,5.799-5.78C140.834,93.803,143.188,96.217,143.186,99.635z
		 M140.266,99.559c-0.015-1.746-1.257-3.066-2.861-3.041c-1.616,0.023-2.799,1.352-2.778,3.117s1.239,3.066,2.853,3.045
		C139.086,102.658,140.281,101.318,140.266,99.559z"/>
	<path fill-rule="evenodd" clip-rule="evenodd" fill="#4E4E4E" d="M99.209,95.621c1.041-1.429,2.349-1.974,3.916-1.811
		c2.14,0.222,3.403,1.522,3.544,3.874c0.137,2.291,0.052,4.596,0.073,6.895c0.003,0.293-0.055,0.484-0.4,0.438
		c-0.029-0.004-0.062-0.002-0.092,0c-2.458,0.18-2.458,0.18-2.458-2.238c0-1.318,0.017-2.637-0.005-3.955
		c-0.023-1.396-0.567-2.129-1.645-2.289c-1.102-0.166-2.131,0.498-2.569,1.645c-0.27,0.707-0.229,1.445-0.229,2.18
		c0.001,1.348-0.02,2.697,0.011,4.045c0.012,0.486-0.146,0.609-0.621,0.625c-2.337,0.08-2.337,0.096-2.337-2.193
		c0-2.576,0.027-5.15-0.018-7.725c-0.013-0.732,0.124-1.111,0.93-0.96c0.148,0.027,0.306,0.004,0.459,0.004
		C99.118,94.153,99.118,94.153,99.209,95.621z"/>
	<path fill-rule="evenodd" clip-rule="evenodd" fill="#4E4E4E" d="M126.274,95.58c1.062-1.302,2.319-2.068,4.056-1.675
		c0.642,0.146,0.922,0.424,0.588,1.078c-0.055,0.105-0.059,0.236-0.093,0.354c-0.382,1.312-0.382,1.312-1.745,1.273
		c-1.382-0.037-2.466,0.9-2.648,2.395c-0.212,1.736-0.081,3.486-0.07,5.229c0.005,0.662-0.204,0.803-0.827,0.797
		c-2.139-0.018-2.14,0.006-2.14-2.131c0-2.662,0.016-5.324-0.011-7.988c-0.006-0.582,0.135-0.871,0.76-0.761
		c0.119,0.021,0.245,0.004,0.367,0.004C126.007,94.153,126.007,94.153,126.274,95.58z"/>
	<path fill-rule="evenodd" clip-rule="evenodd" fill="#4E4E4E" d="M150.634,115.443c0.368,0,0.736,0,1.104,0
		c1.261,0,1.33,0.084,1.133,1.373c-0.362,2.371-2.121,3.869-4.586,3.904c-2.374,0.033-4.57-1.742-4.898-4.018
		c-0.311-2.156,0.34-3.945,2.212-5.17c1.596-1.045,3.929-0.959,5.485,0.078c0.659,0.439,0.58,0.746,0.044,1.209
		c-0.342,0.295-0.465,0.02-0.666-0.123c-1.265-0.902-2.902-1.006-4.146-0.217c-1.461,0.93-1.926,2.311-1.693,3.969
		c0.209,1.486,1.268,2.631,2.733,2.992c1.874,0.459,3.699-0.506,4.2-2.197c0.144-0.486,0.139-0.742-0.486-0.705
		c-0.765,0.045-1.534-0.016-2.3,0.02c-0.505,0.025-0.518-0.248-0.533-0.625c-0.019-0.436,0.192-0.506,0.558-0.496
		C149.407,115.457,150.021,115.443,150.634,115.443z"/>
	<path fill-rule="evenodd" clip-rule="evenodd" fill="#4E4E4E" d="M145.546,99.602c0-1.596,0.019-3.189-0.012-4.785
		c-0.01-0.514,0.133-0.669,0.663-0.677c2.296-0.039,2.296-0.058,2.296,2.263c0,2.607-0.022,5.217,0.016,7.822
		c0.01,0.656-0.187,0.811-0.818,0.807c-2.145-0.018-2.145,0.008-2.145-2.115C145.546,101.811,145.546,100.707,145.546,99.602z"/>
	<path fill-rule="evenodd" clip-rule="evenodd" fill="#4E4E4E" d="M78.849,115.76c0-1.348,0.015-2.697-0.008-4.045
		c-0.008-0.475,0.062-0.744,0.637-0.699c1.277,0.102,2.573-0.162,3.837,0.203c2.251,0.648,3.403,2.527,3.193,5.211
		c-0.161,2.055-1.717,3.744-3.802,3.977c-1.121,0.125-2.264,0.041-3.396,0.078c-0.467,0.014-0.466-0.256-0.464-0.588
		C78.853,118.518,78.849,117.139,78.849,115.76z M80.048,115.664c0,0.611,0,1.223,0,1.836c0,1.984,0,1.984,2.016,1.822
		c1.596-0.127,2.689-0.945,3.083-2.307c0.797-2.754-0.77-4.842-3.642-4.852c-0.306-0.002-0.615,0.027-0.917-0.008
		c-0.462-0.053-0.561,0.148-0.549,0.572C80.067,113.705,80.048,114.686,80.048,115.664z"/>
	<path fill-rule="evenodd" clip-rule="evenodd" fill="#4E4E4E" d="M175.307,119.777c0,1.072-0.018,2.014,0.009,2.955
		c0.013,0.459-0.105,0.645-0.609,0.646c-0.496,0.004-0.61-0.164-0.606-0.627c0.019-2.633-0.004-5.268,0.027-7.9
		c0.003-0.273-0.333-0.77,0.322-0.854c0.552-0.07,0.914,0.062,0.83,0.762c1.744-1.299,3.237-1.273,4.405,0.004
		c1.229,1.342,1.269,3.504,0.091,4.871C178.644,120.949,177.083,121.041,175.307,119.777z M177.296,114.914
		c-1.18,0.02-2.061,1.031-2.049,2.35c0.014,1.398,0.891,2.322,2.176,2.291c1.186-0.029,2.023-1.027,1.992-2.375
		C179.385,115.848,178.492,114.895,177.296,114.914z"/>
	<path fill-rule="evenodd" clip-rule="evenodd" fill="#4E4E4E" d="M121.189,119.777c0,1.072-0.019,2.014,0.008,2.955
		c0.013,0.459-0.105,0.645-0.608,0.646c-0.497,0.004-0.61-0.164-0.607-0.627c0.019-2.633-0.004-5.268,0.027-7.9
		c0.003-0.273-0.332-0.77,0.322-0.854c0.552-0.07,0.914,0.062,0.83,0.762c1.745-1.299,3.237-1.273,4.405,0.004
		c1.229,1.342,1.269,3.504,0.091,4.871C124.525,120.949,122.965,121.041,121.189,119.777z M123.195,119.555
		c1.226,0.012,2.077-0.906,2.102-2.266c0.024-1.328-0.835-2.342-2.01-2.371c-1.236-0.033-2.157,0.961-2.158,2.328
		C121.128,118.6,121.974,119.543,123.195,119.555z"/>
	<path fill-rule="evenodd" clip-rule="evenodd" fill="#4E4E4E" d="M105.344,117.471c-0.612,0-1.228,0.037-1.836-0.01
		c-0.739-0.057-0.737,0.27-0.521,0.811c0.558,1.393,2.302,1.736,3.39,0.67c0.185-0.18,0.244-0.541,0.7-0.373
		c0.771,0.287,0.844,0.424,0.314,1.039c-1.056,1.227-3.101,1.465-4.416,0.516c-1.453-1.051-1.849-3.279-0.862-4.859
		c0.869-1.393,2.729-1.91,4.188-1.146c1.157,0.604,1.555,1.654,1.634,2.881c0.023,0.354-0.123,0.488-0.48,0.479
		C106.752,117.457,106.047,117.471,105.344,117.471z M104.817,116.426c0.397,0,0.797,0.016,1.193-0.008
		c0.188-0.01,0.458,0.135,0.551-0.154c0.07-0.219-0.062-0.41-0.185-0.59c-0.426-0.627-1.047-0.795-1.76-0.758
		c-0.673,0.035-1.141,0.391-1.471,0.949c-0.266,0.447-0.084,0.59,0.386,0.564C103.96,116.406,104.389,116.426,104.817,116.426z"/>
	<path fill-rule="evenodd" clip-rule="evenodd" fill="#4E4E4E" d="M131.382,117.471c-0.644,0-1.291,0.039-1.931-0.01
		c-0.701-0.055-0.667,0.252-0.481,0.752c0.54,1.457,2.381,1.877,3.411,0.684c0.485-0.562,0.871-0.324,1.207-0.053
		c0.482,0.391-0.107,0.643-0.29,0.848c-1.05,1.176-3.097,1.346-4.355,0.41c-1.422-1.059-1.803-3.207-0.851-4.803
		c0.819-1.371,2.619-1.918,4.103-1.246c1.02,0.463,1.771,1.744,1.766,2.918c-0.002,0.428-0.183,0.516-0.554,0.506
		C132.731,117.457,132.057,117.471,131.382,117.471z M130.854,116.426c0.395,0,0.792-0.025,1.185,0.006
		c0.664,0.053,0.631-0.266,0.391-0.693c-0.595-1.061-2.355-1.123-3.118-0.115c-0.145,0.191-0.354,0.4-0.273,0.643
		c0.103,0.311,0.416,0.135,0.632,0.15C130.062,116.447,130.458,116.426,130.854,116.426z"/>
	<path fill-rule="evenodd" clip-rule="evenodd" fill="#4E4E4E" d="M91.29,117.471c-0.613,0-1.229,0.043-1.838-0.012
		c-0.696-0.062-0.683,0.293-0.527,0.764c0.461,1.395,2.298,1.793,3.386,0.76c0.182-0.172,0.214-0.574,0.686-0.426
		c0.791,0.248,0.883,0.473,0.312,1.096c-1.113,1.217-3.108,1.41-4.432,0.428c-1.359-1.01-1.751-3.182-0.852-4.734
		c0.808-1.395,2.56-1.959,4.079-1.314c1.073,0.457,1.853,1.785,1.789,2.975c-0.02,0.361-0.136,0.48-0.489,0.471
		C92.7,117.457,91.995,117.471,91.29,117.471z M90.799,116.426c0.396,0,0.791,0.012,1.187-0.006c0.19-0.008,0.449,0.117,0.554-0.145
		c0.088-0.221-0.074-0.408-0.188-0.584c-0.656-1.021-2.32-1.074-3.064-0.092c-0.158,0.211-0.402,0.455-0.255,0.721
		c0.128,0.229,0.442,0.088,0.672,0.1C90.068,116.439,90.434,116.426,90.799,116.426z"/>
	<path fill-rule="evenodd" clip-rule="evenodd" fill="#4E4E4E" d="M115.282,113.787c1.945-0.016,3.381,1.439,3.391,3.441
		c0.011,1.988-1.434,3.49-3.354,3.486c-1.896-0.004-3.302-1.439-3.336-3.406C111.948,115.301,113.352,113.803,115.282,113.787z
		 M113.213,117.227c-0.008,1.373,0.812,2.305,2.047,2.328c1.296,0.023,2.169-0.893,2.184-2.291c0.014-1.367-0.896-2.367-2.145-2.357
		C114.097,114.916,113.22,115.891,113.213,117.227z"/>
	<path fill-rule="evenodd" clip-rule="evenodd" fill="#4E4E4E" d="M161.935,113.787c1.948,0,3.344,1.451,3.34,3.477
		c-0.004,1.99-1.46,3.482-3.374,3.453c-1.904-0.027-3.278-1.467-3.285-3.443C158.608,115.238,159.989,113.789,161.935,113.787z
		 M159.844,117.262c0.007,1.385,0.816,2.283,2.069,2.293c1.271,0.01,2.159-0.945,2.162-2.324c0.003-1.338-0.947-2.346-2.192-2.322
		C160.688,114.93,159.838,115.91,159.844,117.262z"/>
	<path fill-rule="evenodd" clip-rule="evenodd" fill="#4E4E4E" d="M171.229,119.555c-0.716,0.809-1.385,1.146-2.188,1.156
		c-1.431,0.016-2.372-0.889-2.438-2.416c-0.054-1.252,0.01-2.51-0.023-3.764c-0.014-0.488,0.205-0.535,0.601-0.541
		c0.435-0.006,0.672,0.051,0.651,0.584c-0.041,1.07-0.028,2.143-0.004,3.215c0.027,1.258,0.456,1.75,1.483,1.766
		c1.019,0.016,1.754-0.666,1.808-1.771c0.049-0.979,0.007-1.959,0.014-2.939c0.003-0.426-0.165-0.883,0.625-0.873
		c0.812,0.012,0.595,0.508,0.599,0.914c0.012,1.623,0.008,3.246,0.002,4.867c-0.002,0.336,0.149,0.73-0.482,0.746
		C171.307,120.512,171.076,120.342,171.229,119.555z"/>
	<path fill-rule="evenodd" clip-rule="evenodd" fill="#4E4E4E" d="M94.585,114.084c1.031-0.316,1.439,0.105,1.714,0.984
		c0.408,1.303,0.959,2.561,1.5,3.969c0.554-1.428,1.058-2.723,1.559-4.021c0.4-1.039,0.398-1.039,1.666-0.975
		c-0.845,2.068-1.682,4.1-2.501,6.139c-0.186,0.461-0.558,0.244-0.857,0.297c-0.358,0.062-0.549-0.102-0.683-0.439
		C96.197,118.059,95.394,116.086,94.585,114.084z"/>
	<path fill-rule="evenodd" clip-rule="evenodd" fill="#4E4E4E" d="M110.636,115.744c0,1.379-0.022,2.758,0.012,4.135
		c0.013,0.49-0.132,0.631-0.613,0.613c-0.436-0.016-0.647-0.066-0.643-0.596c0.029-2.758,0.027-5.516,0.002-8.273
		c-0.005-0.502,0.164-0.613,0.625-0.611c0.448,0,0.646,0.074,0.631,0.596C110.608,112.984,110.636,114.365,110.636,115.744z"/>
	<path fill-rule="evenodd" clip-rule="evenodd" fill="#4E4E4E" d="M136.502,115.117c0.719-0.939,1.362-1.354,2.236-1.295
		c0.251,0.018,0.651-0.039,0.583,0.365c-0.057,0.334,0.027,0.822-0.532,0.908c-1.903,0.287-2.138,0.568-2.138,2.527
		c0,0.703-0.022,1.408,0.008,2.109c0.021,0.492-0.013,0.777-0.655,0.771c-0.616-0.006-0.593-0.299-0.589-0.73
		c0.015-1.621-0.015-3.24,0.024-4.861c0.007-0.318-0.358-0.865,0.444-0.932C136.64,113.918,136.62,114.344,136.502,115.117z"/>
	<path fill-rule="evenodd" clip-rule="evenodd" fill="#4E4E4E" d="M145.116,90.825c0.01-1.053,0.8-1.844,1.855-1.856
		c1.07-0.012,1.93,0.84,1.92,1.903c-0.011,1.018-0.849,1.85-1.875,1.861C145.925,92.745,145.106,91.922,145.116,90.825z"/>
	<path fill-rule="evenodd" clip-rule="evenodd" fill="#4E4E4E" d="M155.355,115.012c0.714-0.838,1.38-1.287,2.295-1.186
		c0.225,0.025,0.595,0.004,0.504,0.342c-0.089,0.33,0.026,0.834-0.531,0.928c-1.955,0.33-2.135,0.547-2.135,2.527
		c0,0.705-0.028,1.412,0.009,2.115c0.027,0.518-0.056,0.766-0.677,0.764c-0.604-0.002-0.604-0.279-0.599-0.723
		c0.017-1.654-0.007-3.311,0.018-4.967c0.005-0.314-0.274-0.787,0.463-0.838C155.431,113.924,155.392,114.328,155.355,115.012z"/>
	<path fill-rule="evenodd" clip-rule="evenodd" fill="#FDFDFD" d="M37.437,110.844c-6.101,0-12.202-0.014-18.303,0.018
		c-0.763,0.004-0.996-0.199-0.963-0.965c0.239-5.561,2.877-9.762,7.271-12.984c0.419-0.309,0.84-0.648,1.315-0.838
		c0.927-0.371,1.046-0.793,0.485-1.662c-0.828-1.283-1.488-2.674-2.227-4.016c-0.249-0.451-0.512-0.928,0.114-1.25
		c0.63-0.324,0.863,0.209,1.099,0.639c0.825,1.504,1.665,3,2.449,4.524c0.256,0.5,0.485,0.542,0.989,0.349
		c5.165-1.98,10.35-1.995,15.521-0.029c0.562,0.213,0.783,0.1,1.043-0.406c0.771-1.498,1.594-2.967,2.408-4.442
		c0.236-0.427,0.482-0.971,1.104-0.626c0.601,0.333,0.33,0.834,0.089,1.276c-0.761,1.4-1.469,2.832-2.315,4.177
		c-0.467,0.744-0.221,0.961,0.421,1.332c4.277,2.471,7.218,6.002,8.432,10.859c0.269,1.076,0.32,2.174,0.345,3.281
		c0.016,0.719-0.309,0.773-0.883,0.771c-3.679-0.018-7.358-0.01-11.037-0.01C42.342,110.844,39.889,110.844,37.437,110.844z
		 M28.646,104.055c1.014-0.004,1.829-0.789,1.85-1.781c0.021-0.988-0.891-1.885-1.888-1.855c-1.011,0.031-1.79,0.84-1.779,1.848
		C26.84,103.285,27.626,104.059,28.646,104.055z M46.227,104.055c1.02,0.002,1.802-0.773,1.81-1.795c0.008-1-0.785-1.818-1.783-1.84
		c-1.008-0.023-1.893,0.852-1.881,1.859C44.383,103.26,45.211,104.053,46.227,104.055z"/>
	<path fill-rule="evenodd" clip-rule="evenodd" fill="#FDFDFD" d="M38.981,115.564c0-1.141-0.001-2.281,0.001-3.422
		c0-0.131,0.063-0.242,0.198-0.27c0.266-0.055,0.38,0.148,0.494,0.326c0.521,0.812,1.038,1.631,1.665,2.617
		c0.07-1.102-0.209-2.051,0.095-2.938c0.106,0,0.213,0,0.319,0c0,1.158,0.001,2.316-0.002,3.475c0,0.135-0.074,0.232-0.217,0.242
		c-0.218,0.014-0.322-0.146-0.42-0.303c-0.422-0.672-0.836-1.348-1.269-2.014c-0.105-0.162-0.11-0.426-0.42-0.455
		c-0.152,0.91,0.094,1.846-0.133,2.74C39.189,115.564,39.085,115.564,38.981,115.564z"/>
	<path fill-rule="evenodd" clip-rule="evenodd" fill="#FDFDFD" d="M56.45,115.326c0,0.139-0.018,0.26-0.18,0.27
		c-0.181,0.008-0.26-0.115-0.328-0.262c-0.156-0.334-0.094-0.83-0.653-0.869c-0.611-0.045-1.182-0.057-1.282,0.771
		c-0.023,0.195-0.152,0.465-0.427,0.336c-0.221-0.105-0.055-0.328-0.002-0.486c0.31-0.926,0.625-1.85,0.953-2.77
		c0.138-0.391,0.48-0.779,0.734-0.246C55.76,113.111,56.068,114.242,56.45,115.326z M54.904,112.457
		c-0.116,0.371-0.225,0.709-0.327,1.047c-0.048,0.16-0.213,0.355,0.014,0.477c0.218,0.115,0.483,0.105,0.704-0.004
		c0.222-0.107,0.115-0.334,0.053-0.479C55.207,113.168,55.212,112.775,54.904,112.457z"/>
	<path fill-rule="evenodd" clip-rule="evenodd" fill="#FDFDFD" d="M23.676,115.609c-0.251-0.066-0.203-0.221-0.152-0.365
		c0.359-1.039,0.692-2.086,1.094-3.107c0.187-0.475,0.559-0.375,0.714,0.021c0.399,1.023,0.732,2.07,1.094,3.109
		c0.046,0.131,0.029,0.273-0.089,0.311c-0.213,0.07-0.344-0.066-0.401-0.264c-0.14-0.479-0.253-0.93-0.943-0.869
		c-0.469,0.041-0.844,0.068-0.934,0.631C24.021,115.309,23.951,115.557,23.676,115.609z M24.944,112.348
		c-0.161,0.477-0.277,0.805-0.384,1.137c-0.052,0.164-0.195,0.359,0.011,0.486c0.215,0.133,0.481,0.107,0.706,0.016
		c0.234-0.098,0.12-0.316,0.072-0.475C25.246,113.168,25.114,112.832,24.944,112.348z"/>
	<path fill-rule="evenodd" clip-rule="evenodd" fill="#FDFDFD" d="M36.073,111.984c-0.385,0.678-1.564-0.297-1.527,0.916
		c0.033,1.078,1.028,0.229,1.393,0.717c-0.109,0.365-0.447,0.219-0.665,0.203c-0.543-0.037-0.75,0.131-0.75,0.713
		c0,0.619,0.294,0.697,0.792,0.682c0.277-0.008,0.615-0.131,0.856,0.258c-0.622,0.297-1.256,0.145-1.866,0.115
		c-0.349-0.018-0.25-0.361-0.253-0.588c-0.009-0.762,0.04-1.529-0.017-2.287c-0.05-0.67,0.138-0.984,0.849-0.875
		C35.259,111.896,35.663,111.75,36.073,111.984z"/>
	<path fill-rule="evenodd" clip-rule="evenodd" fill="#FDFDFD" d="M19.838,114.984c0.365-1.053,0.647-1.875,0.937-2.695
		c0.07-0.199,0.151-0.486,0.411-0.387c0.279,0.109,0.087,0.365,0.021,0.551c-0.317,0.895-0.643,1.787-0.963,2.68
		c-0.084,0.234-0.157,0.492-0.474,0.473c-0.277-0.016-0.306-0.271-0.37-0.467c-0.31-0.93-0.606-1.863-0.912-2.795
		c-0.056-0.17-0.185-0.369,0.064-0.461c0.223-0.08,0.317,0.109,0.377,0.295C19.207,113.035,19.485,113.891,19.838,114.984z"/>
	<path fill-rule="evenodd" clip-rule="evenodd" fill="#FDFDFD" d="M47.46,115.246c-0.843,0.588-1.797,0.498-2.392-0.129
		c-0.652-0.686-0.679-1.873-0.059-2.617c0.604-0.729,1.521-0.887,2.568-0.268c-1.553-0.117-2.695,0.139-2.47,1.857
		C45.23,115.037,45.795,115.303,47.46,115.246z"/>
	<path fill-rule="evenodd" clip-rule="evenodd" fill="#FDFDFD" d="M31.476,115.512c-0.74,0.186-1.337,0.105-1.924,0.094
		c-0.29-0.006-0.302-0.242-0.301-0.467c0.001-0.945,0-1.891,0.001-2.836c0-0.182-0.011-0.412,0.23-0.422
		c0.316-0.014,0.278,0.258,0.28,0.463c0.005,0.641,0.052,1.287-0.011,1.92c-0.079,0.781,0.224,1.057,0.973,0.947
		C30.926,115.182,31.147,115.18,31.476,115.512z"/>
	<path fill-rule="evenodd" clip-rule="evenodd" fill="#FDFDFD" d="M50.213,113.672c0-0.459-0.004-0.918,0.001-1.375
		c0.002-0.18-0.011-0.41,0.242-0.406c0.165,0.004,0.232,0.184,0.232,0.346c0.002,1.008,0.002,2.018-0.005,3.025
		c-0.001,0.158-0.073,0.314-0.26,0.309c-0.208-0.008-0.205-0.195-0.207-0.34C50.21,114.711,50.214,114.191,50.213,113.672z"/>
	<path fill-rule="evenodd" clip-rule="evenodd" fill="#BABABA" d="M28.646,104.055c-1.02,0.004-1.806-0.77-1.817-1.789
		c-0.011-1.008,0.768-1.816,1.779-1.848c0.998-0.029,1.909,0.867,1.888,1.855C30.475,103.266,29.66,104.051,28.646,104.055z"/>
	<path fill-rule="evenodd" clip-rule="evenodd" fill="#BABABA" d="M46.227,104.055c-1.015-0.002-1.844-0.795-1.855-1.775
		c-0.011-1.008,0.874-1.883,1.881-1.859c0.998,0.021,1.791,0.84,1.783,1.84C48.028,103.281,47.247,104.057,46.227,104.055z"/>
	<path fill-rule="evenodd" clip-rule="evenodd" fill="#BABABA" d="M54.904,112.457c0.308,0.318,0.303,0.711,0.444,1.041
		c0.062,0.145,0.169,0.371-0.053,0.479c-0.221,0.109-0.486,0.119-0.704,0.004c-0.227-0.121-0.062-0.316-0.014-0.477
		C54.679,113.166,54.788,112.828,54.904,112.457z"/>
	<path fill-rule="evenodd" clip-rule="evenodd" fill="#BABABA" d="M24.944,112.348c0.17,0.484,0.302,0.82,0.405,1.164
		c0.047,0.158,0.162,0.377-0.072,0.475c-0.225,0.092-0.491,0.117-0.706-0.016c-0.207-0.127-0.063-0.322-0.011-0.486
		C24.667,113.152,24.783,112.824,24.944,112.348z"/>
</g>
<g id="Logo-light">
	<path fill-rule="evenodd" clip-rule="evenodd" fill="#93C051" d="M37.569,209.018c-18.969,0-34.127-15.129-34.176-33.998
		c-0.049-18.557,15.351-34.201,34.749-33.898c18.414,0.289,33.653,15.264,33.598,34.15C71.686,193.872,56.39,209.018,37.569,209.018
		z M37.437,180.83c2.453,0,4.906,0,7.358,0c3.679,0,7.358-0.009,11.037,0.01c0.574,0.002,0.899-0.053,0.883-0.771
		c-0.025-1.108-0.076-2.205-0.345-3.281c-1.214-4.857-4.154-8.39-8.432-10.859c-0.643-0.371-0.888-0.588-0.421-1.332
		c0.846-1.346,1.554-2.777,2.315-4.178c0.24-0.441,0.511-0.943-0.089-1.275c-0.622-0.345-0.868,0.199-1.104,0.626
		c-0.813,1.476-1.637,2.944-2.408,4.442c-0.26,0.506-0.481,0.619-1.043,0.405c-5.171-1.965-10.356-1.95-15.521,0.03
		c-0.503,0.193-0.732,0.149-0.989-0.35c-0.784-1.524-1.624-3.021-2.449-4.524c-0.236-0.43-0.469-0.964-1.099-0.64
		c-0.626,0.322-0.363,0.799-0.114,1.25c0.739,1.342,1.398,2.732,2.227,4.016c0.561,0.869,0.441,1.29-0.485,1.661
		c-0.475,0.19-0.896,0.53-1.315,0.839c-4.395,3.223-7.033,7.424-7.271,12.984c-0.033,0.766,0.201,0.969,0.963,0.965
		C25.234,180.816,31.335,180.83,37.437,180.83z M38.981,185.551c0.104,0,0.208,0,0.312,0c0.227-0.895-0.019-1.83,0.133-2.74
		c0.31,0.029,0.315,0.293,0.42,0.455c0.433,0.665,0.847,1.342,1.269,2.014c0.098,0.156,0.202,0.316,0.42,0.302
		c0.143-0.009,0.216-0.106,0.217-0.241c0.003-1.158,0.002-2.316,0.002-3.475c-0.106,0-0.213,0-0.319-0.001
		c-0.304,0.888-0.025,1.836-0.095,2.938c-0.627-0.986-1.143-1.805-1.665-2.617c-0.114-0.178-0.228-0.381-0.494-0.326
		c-0.135,0.027-0.198,0.139-0.198,0.27C38.98,183.27,38.981,184.41,38.981,185.551z M56.45,185.312
		c-0.382-1.084-0.69-2.215-1.185-3.256c-0.254-0.534-0.596-0.145-0.734,0.245c-0.328,0.921-0.643,1.845-0.953,2.771
		c-0.053,0.158-0.219,0.381,0.002,0.485c0.275,0.13,0.404-0.14,0.427-0.336c0.101-0.827,0.671-0.815,1.282-0.771
		c0.559,0.039,0.497,0.535,0.653,0.869c0.068,0.146,0.147,0.27,0.328,0.261C56.432,185.572,56.45,185.451,56.45,185.312z
		 M23.676,185.596c0.274-0.053,0.345-0.302,0.383-0.533c0.09-0.562,0.465-0.591,0.934-0.631c0.69-0.061,0.803,0.391,0.943,0.869
		c0.058,0.196,0.188,0.334,0.401,0.264c0.118-0.038,0.135-0.18,0.089-0.312c-0.362-1.038-0.695-2.086-1.094-3.108
		c-0.155-0.397-0.527-0.497-0.714-0.022c-0.402,1.021-0.735,2.069-1.094,3.107C23.474,185.375,23.425,185.528,23.676,185.596z
		 M36.073,181.971c-0.411-0.234-0.814-0.088-1.187-0.146c-0.711-0.109-0.899,0.205-0.849,0.875c0.057,0.758,0.007,1.524,0.017,2.287
		c0.003,0.226-0.096,0.57,0.253,0.588c0.61,0.029,1.244,0.182,1.866-0.116c-0.241-0.389-0.579-0.266-0.856-0.257
		c-0.498,0.016-0.792-0.062-0.792-0.682c0-0.582,0.207-0.75,0.75-0.713c0.218,0.016,0.556,0.162,0.665-0.203
		c-0.365-0.488-1.36,0.36-1.393-0.717C34.509,181.674,35.688,182.648,36.073,181.971z M19.838,184.97
		c-0.354-1.093-0.631-1.948-0.908-2.806c-0.06-0.187-0.154-0.375-0.377-0.295c-0.249,0.091-0.12,0.29-0.064,0.461
		c0.305,0.932,0.602,1.865,0.912,2.795c0.064,0.194,0.093,0.451,0.37,0.467c0.317,0.019,0.39-0.238,0.474-0.473
		c0.321-0.893,0.646-1.785,0.963-2.68c0.066-0.186,0.258-0.442-0.021-0.551c-0.26-0.101-0.341,0.188-0.411,0.386
		C20.486,183.095,20.204,183.918,19.838,184.97z M47.46,185.232c-1.665,0.057-2.229-0.209-2.353-1.156
		c-0.225-1.719,0.917-1.975,2.47-1.858c-1.047-0.618-1.963-0.46-2.568,0.268c-0.62,0.745-0.593,1.933,0.059,2.618
		C45.663,185.73,46.617,185.82,47.46,185.232z M31.476,185.498c-0.329-0.332-0.55-0.331-0.752-0.301
		c-0.749,0.109-1.052-0.166-0.973-0.947c0.063-0.633,0.016-1.279,0.011-1.92c-0.002-0.205,0.036-0.477-0.28-0.463
		c-0.242,0.01-0.23,0.24-0.23,0.422c-0.001,0.945,0,1.891-0.001,2.836c0,0.225,0.012,0.461,0.301,0.467
		C30.139,185.604,30.736,185.684,31.476,185.498z M50.214,183.657c0,0.521-0.004,1.04,0.003,1.56
		c0.001,0.145-0.002,0.332,0.207,0.339c0.187,0.007,0.259-0.149,0.26-0.308c0.007-1.009,0.008-2.018,0.005-3.025
		c0-0.162-0.068-0.342-0.232-0.346c-0.253-0.005-0.24,0.227-0.242,0.405C50.209,182.74,50.213,183.199,50.214,183.657z"/>
	<path fill-rule="evenodd" clip-rule="evenodd" fill="#E6E6E5" d="M94.333,175c-1.024,0-1.966-0.016-2.905,0.008
		c-0.42,0.012-0.492-0.25-0.593-0.555c-0.297-0.898-0.624-1.787-0.913-2.689c-0.117-0.369-0.289-0.524-0.709-0.518
		c-1.686,0.029-3.37,0.018-5.055,0.008c-0.354-0.003-0.537,0.094-0.648,0.47c-0.269,0.907-0.624,1.788-0.906,2.692
		c-0.141,0.446-0.361,0.645-0.847,0.593c-0.868-0.093-2.075,0.38-2.512-0.195c-0.351-0.463,0.438-1.534,0.735-2.329
		c1.546-4.146,3.12-8.282,4.639-12.439c0.244-0.668,0.498-1.027,1.275-0.922c0.842,0.113,1.895-0.32,2.496,0.168
		c0.553,0.449,0.639,1.473,0.93,2.244c1.561,4.142,3.121,8.283,4.678,12.426C94.114,174.27,94.201,174.59,94.333,175z
		 M86.707,162.705c-0.58,1.804-1.27,3.552-1.894,5.324c-0.135,0.383,0.075,0.406,0.354,0.405c1.152-0.002,2.307-0.001,3.549-0.001
		C88.076,166.46,87.297,164.641,86.707,162.705z"/>
	<path fill-rule="evenodd" clip-rule="evenodd" fill="#E6E6E5" d="M117.633,165.463c-0.199-2.018-0.09-3.848-0.141-5.677
		c-0.014-0.532,0.16-0.654,0.674-0.661c2.287-0.033,2.287-0.051,2.287,2.254c0,4.263-0.02,8.525,0.018,12.787
		c0.006,0.705-0.193,0.948-0.871,0.84c-0.209-0.033-0.432-0.029-0.643,0c-0.865,0.117-1.529,0.007-1.23-1.392
		c-0.963,1.108-1.902,1.708-3.139,1.757c-1.176,0.048-2.238-0.217-3.207-0.896c-1.934-1.358-2.811-3.885-2.225-6.466
		c0.492-2.161,2.215-3.832,4.381-4.176C115.123,163.582,116.484,164.049,117.633,165.463z M117.654,169.704
		c0.064-1.742-1.104-3.122-2.703-3.2c-1.635-0.078-2.984,1.26-3.027,3.003c-0.043,1.69,1.191,3.091,2.783,3.159
		C116.318,172.734,117.592,171.455,117.654,169.704z"/>
	<path fill-rule="evenodd" clip-rule="evenodd" fill="#E6E6E5" d="M159.6,173.717c-2.078,2.535-5.676,1.903-7.373-0.205
		c-2.137-2.656-1.67-6.874,0.992-8.775c2-1.429,4.303-1.275,6.162,0.494c0-1.817,0.041-3.547-0.02-5.273
		c-0.023-0.711,0.193-0.848,0.859-0.836c2.107,0.037,2.107,0.008,2.107,2.143c0,4.291-0.02,8.584,0.021,12.875
		c0.006,0.748-0.223,0.971-0.912,0.867c-0.211-0.031-0.43-0.021-0.643-0.002C159.943,175.088,159.178,175.089,159.6,173.717z
		 M159.566,169.623c0.014-1.743-1.186-3.08-2.795-3.119c-1.623-0.04-2.939,1.344-2.939,3.088c0.002,1.705,1.273,3.07,2.861,3.074
		C158.314,172.671,159.553,171.359,159.566,169.623z"/>
	<path fill-rule="evenodd" clip-rule="evenodd" fill="#E6E6E5" d="M143.186,169.621c-0.002,3.398-2.377,5.76-5.781,5.748
		c-3.375-0.012-5.744-2.419-5.727-5.818c0.018-3.381,2.445-5.8,5.799-5.78C140.834,163.789,143.188,166.203,143.186,169.621z
		 M140.266,169.545c-0.016-1.746-1.258-3.066-2.861-3.042c-1.617,0.024-2.799,1.353-2.779,3.117c0.021,1.767,1.24,3.067,2.854,3.046
		C139.086,172.645,140.281,171.305,140.266,169.545z"/>
	<path fill-rule="evenodd" clip-rule="evenodd" fill="#E6E6E5" d="M99.209,165.607c1.041-1.43,2.348-1.975,3.916-1.812
		c2.139,0.222,3.402,1.521,3.543,3.874c0.137,2.291,0.053,4.596,0.074,6.895c0.002,0.293-0.055,0.484-0.4,0.437
		c-0.029-0.004-0.062-0.002-0.092,0.001c-2.459,0.18-2.459,0.18-2.459-2.238c0-1.318,0.018-2.637-0.004-3.955
		c-0.023-1.396-0.568-2.129-1.645-2.29c-1.102-0.165-2.131,0.499-2.57,1.646c-0.27,0.707-0.229,1.444-0.229,2.179
		c0.002,1.349-0.02,2.698,0.012,4.046c0.012,0.486-0.146,0.609-0.621,0.625c-2.337,0.08-2.337,0.096-2.337-2.194
		c0-2.575,0.027-5.15-0.018-7.725c-0.013-0.731,0.124-1.11,0.929-0.96c0.148,0.027,0.307,0.004,0.459,0.004
		C99.117,164.139,99.117,164.139,99.209,165.607z"/>
	<path fill-rule="evenodd" clip-rule="evenodd" fill="#E6E6E5" d="M126.273,165.565c1.062-1.302,2.32-2.067,4.057-1.675
		c0.641,0.146,0.922,0.424,0.588,1.078c-0.055,0.105-0.059,0.236-0.094,0.354c-0.381,1.312-0.381,1.312-1.744,1.273
		c-1.383-0.037-2.467,0.9-2.648,2.395c-0.213,1.736-0.082,3.485-0.07,5.229c0.004,0.661-0.205,0.803-0.828,0.797
		c-2.139-0.019-2.139,0.006-2.139-2.131c0-2.662,0.016-5.325-0.012-7.988c-0.006-0.582,0.135-0.871,0.76-0.762
		c0.119,0.021,0.246,0.004,0.367,0.004C126.006,164.139,126.006,164.139,126.273,165.565z"/>
	<path fill-rule="evenodd" clip-rule="evenodd" fill="#E6E6E5" d="M150.633,185.43c0.369,0,0.736,0,1.105,0
		c1.26,0,1.33,0.084,1.133,1.373c-0.363,2.371-2.121,3.869-4.586,3.904c-2.375,0.033-4.57-1.742-4.898-4.018
		c-0.311-2.156,0.34-3.945,2.211-5.17c1.596-1.045,3.93-0.96,5.486,0.078c0.658,0.439,0.58,0.746,0.043,1.209
		c-0.342,0.294-0.465,0.02-0.666-0.124c-1.264-0.902-2.902-1.005-4.146-0.216c-1.461,0.929-1.926,2.311-1.693,3.969
		c0.209,1.486,1.268,2.631,2.734,2.991c1.873,0.46,3.699-0.506,4.199-2.196c0.145-0.486,0.139-0.742-0.486-0.705
		c-0.764,0.045-1.533-0.016-2.299,0.02c-0.506,0.024-0.518-0.248-0.533-0.625c-0.02-0.436,0.191-0.507,0.557-0.496
		C149.406,185.443,150.02,185.43,150.633,185.43z"/>
	<path fill-rule="evenodd" clip-rule="evenodd" fill="#E6E6E5" d="M145.545,169.588c0-1.596,0.02-3.19-0.012-4.785
		c-0.01-0.515,0.133-0.67,0.664-0.678c2.295-0.039,2.295-0.058,2.295,2.264c0,2.607-0.021,5.216,0.016,7.822
		c0.01,0.656-0.186,0.811-0.818,0.807c-2.145-0.018-2.145,0.008-2.145-2.116C145.545,171.797,145.545,170.692,145.545,169.588z"/>
	<path fill-rule="evenodd" clip-rule="evenodd" fill="#E6E6E5" d="M78.85,185.746c0-1.348,0.015-2.697-0.009-4.045
		c-0.009-0.475,0.062-0.744,0.638-0.699c1.276,0.101,2.572-0.162,3.837,0.203c2.251,0.648,3.403,2.527,3.193,5.21
		c-0.161,2.055-1.718,3.745-3.802,3.978c-1.121,0.125-2.264,0.04-3.396,0.077c-0.467,0.015-0.466-0.255-0.465-0.587
		C78.854,188.504,78.85,187.125,78.85,185.746z M80.048,185.65c0,0.611,0,1.223,0,1.836c0,1.984,0,1.984,2.017,1.822
		c1.596-0.127,2.688-0.946,3.082-2.307c0.797-2.754-0.77-4.842-3.642-4.853c-0.306-0.001-0.614,0.028-0.917-0.007
		c-0.462-0.054-0.561,0.147-0.549,0.571C80.066,183.691,80.048,184.672,80.048,185.65z"/>
	<path fill-rule="evenodd" clip-rule="evenodd" fill="#E6E6E5" d="M175.307,189.764c0,1.071-0.018,2.014,0.008,2.955
		c0.014,0.459-0.105,0.645-0.609,0.646c-0.496,0.004-0.609-0.164-0.605-0.627c0.018-2.633-0.004-5.268,0.027-7.9
		c0.002-0.273-0.334-0.77,0.322-0.854c0.551-0.071,0.914,0.062,0.83,0.761c1.744-1.298,3.236-1.272,4.404,0.004
		c1.229,1.343,1.27,3.505,0.092,4.872C178.643,190.936,177.082,191.027,175.307,189.764z M177.295,184.9
		c-1.18,0.02-2.061,1.03-2.049,2.35c0.014,1.398,0.891,2.322,2.176,2.291c1.186-0.029,2.023-1.028,1.992-2.376
		C179.385,185.834,178.492,184.881,177.295,184.9z"/>
	<path fill-rule="evenodd" clip-rule="evenodd" fill="#E6E6E5" d="M121.189,189.764c0,1.071-0.02,2.014,0.008,2.955
		c0.012,0.459-0.105,0.645-0.609,0.646c-0.496,0.004-0.609-0.164-0.607-0.627c0.02-2.633-0.004-5.268,0.027-7.9
		c0.004-0.273-0.332-0.77,0.322-0.854c0.553-0.071,0.914,0.062,0.83,0.761c1.746-1.298,3.238-1.272,4.406,0.004
		c1.229,1.343,1.268,3.505,0.09,4.872C124.525,190.936,122.965,191.027,121.189,189.764z M123.195,189.541
		c1.225,0.011,2.076-0.906,2.102-2.267c0.023-1.327-0.836-2.341-2.01-2.371c-1.236-0.032-2.158,0.962-2.158,2.329
		C121.127,188.586,121.973,189.529,123.195,189.541z"/>
	<path fill-rule="evenodd" clip-rule="evenodd" fill="#E6E6E5" d="M105.344,187.457c-0.613,0-1.229,0.037-1.836-0.01
		c-0.74-0.058-0.738,0.27-0.521,0.811c0.559,1.393,2.303,1.736,3.391,0.67c0.184-0.181,0.244-0.542,0.699-0.373
		c0.771,0.287,0.844,0.423,0.314,1.039c-1.055,1.227-3.1,1.465-4.416,0.515c-1.453-1.05-1.848-3.278-0.861-4.858
		c0.869-1.393,2.729-1.91,4.188-1.146c1.158,0.604,1.555,1.654,1.635,2.881c0.023,0.354-0.123,0.488-0.48,0.479
		C106.752,187.443,106.047,187.457,105.344,187.457z M104.816,186.412c0.398,0,0.797,0.016,1.193-0.008
		c0.189-0.01,0.459,0.134,0.551-0.154c0.07-0.219-0.062-0.41-0.184-0.59c-0.426-0.627-1.047-0.795-1.76-0.758
		c-0.674,0.035-1.141,0.391-1.471,0.949c-0.266,0.447-0.084,0.59,0.385,0.564C103.959,186.393,104.389,186.411,104.816,186.412z"/>
	<path fill-rule="evenodd" clip-rule="evenodd" fill="#E6E6E5" d="M131.381,187.457c-0.643,0-1.291,0.038-1.93-0.011
		c-0.701-0.054-0.668,0.252-0.482,0.753c0.541,1.457,2.381,1.877,3.412,0.684c0.484-0.562,0.871-0.324,1.207-0.053
		c0.482,0.391-0.107,0.643-0.291,0.848c-1.049,1.176-3.096,1.346-4.355,0.41c-1.422-1.059-1.803-3.208-0.85-4.803
		c0.818-1.371,2.619-1.918,4.102-1.246c1.02,0.463,1.771,1.744,1.766,2.918c-0.002,0.428-0.182,0.516-0.553,0.505
		C132.73,187.443,132.057,187.457,131.381,187.457z M130.854,186.411c0.395,0,0.791-0.024,1.184,0.006
		c0.664,0.053,0.631-0.266,0.391-0.692c-0.594-1.061-2.355-1.124-3.117-0.115c-0.145,0.191-0.355,0.4-0.273,0.643
		c0.102,0.311,0.416,0.135,0.631,0.15C130.061,186.433,130.457,186.412,130.854,186.411z"/>
	<path fill-rule="evenodd" clip-rule="evenodd" fill="#E6E6E5" d="M91.29,187.457c-0.613,0-1.229,0.043-1.838-0.012
		c-0.696-0.062-0.683,0.292-0.527,0.764c0.461,1.394,2.298,1.792,3.386,0.76c0.182-0.172,0.214-0.574,0.686-0.426
		c0.791,0.247,0.883,0.472,0.312,1.096c-1.113,1.217-3.108,1.41-4.432,0.428c-1.359-1.01-1.751-3.183-0.852-4.734
		c0.808-1.395,2.56-1.959,4.079-1.314c1.073,0.456,1.853,1.785,1.789,2.975c-0.02,0.36-0.136,0.48-0.489,0.471
		C92.7,187.442,91.995,187.457,91.29,187.457z M90.799,186.412c0.396,0,0.791,0.012,1.187-0.006c0.19-0.009,0.449,0.117,0.554-0.145
		c0.088-0.221-0.074-0.408-0.188-0.584c-0.656-1.022-2.32-1.074-3.064-0.092c-0.158,0.211-0.402,0.455-0.255,0.721
		c0.128,0.229,0.442,0.088,0.672,0.1C90.068,186.426,90.434,186.412,90.799,186.412z"/>
	<path fill-rule="evenodd" clip-rule="evenodd" fill="#E6E6E5" d="M115.281,183.773c1.945-0.017,3.381,1.439,3.391,3.44
		c0.012,1.989-1.434,3.491-3.354,3.487c-1.896-0.004-3.303-1.439-3.336-3.406C111.947,185.287,113.352,183.789,115.281,183.773z
		 M113.213,187.213c-0.008,1.373,0.811,2.305,2.047,2.328c1.295,0.023,2.168-0.894,2.184-2.291c0.014-1.367-0.896-2.367-2.145-2.357
		C114.096,184.901,113.219,185.877,113.213,187.213z"/>
	<path fill-rule="evenodd" clip-rule="evenodd" fill="#E6E6E5" d="M161.934,183.773c1.949,0,3.344,1.451,3.34,3.476
		c-0.004,1.991-1.459,3.483-3.373,3.454c-1.904-0.027-3.279-1.468-3.285-3.443C158.607,185.225,159.988,183.774,161.934,183.773z
		 M159.844,187.247c0.006,1.386,0.816,2.284,2.068,2.294c1.271,0.01,2.16-0.945,2.162-2.324c0.004-1.338-0.947-2.346-2.191-2.322
		C160.688,184.915,159.838,185.896,159.844,187.247z"/>
	<path fill-rule="evenodd" clip-rule="evenodd" fill="#E6E6E5" d="M171.229,189.541c-0.715,0.809-1.385,1.146-2.188,1.156
		c-1.43,0.016-2.371-0.889-2.438-2.416c-0.053-1.252,0.01-2.51-0.023-3.764c-0.014-0.488,0.205-0.535,0.602-0.541
		c0.434-0.006,0.672,0.051,0.65,0.584c-0.041,1.07-0.027,2.143-0.004,3.214c0.027,1.259,0.457,1.75,1.484,1.767
		c1.018,0.016,1.754-0.666,1.807-1.772c0.049-0.978,0.008-1.958,0.014-2.938c0.004-0.426-0.164-0.883,0.625-0.873
		c0.812,0.012,0.596,0.508,0.6,0.914c0.012,1.623,0.008,3.245,0.002,4.867c-0.002,0.336,0.148,0.73-0.482,0.746
		C171.307,190.498,171.076,190.328,171.229,189.541z"/>
	<path fill-rule="evenodd" clip-rule="evenodd" fill="#E6E6E5" d="M94.585,184.069c1.031-0.315,1.439,0.106,1.714,0.984
		c0.408,1.303,0.959,2.561,1.5,3.97c0.553-1.428,1.057-2.724,1.559-4.021c0.4-1.039,0.398-1.04,1.666-0.975
		c-0.846,2.068-1.682,4.1-2.502,6.139c-0.186,0.461-0.557,0.244-0.857,0.297c-0.357,0.062-0.548-0.102-0.682-0.439
		C96.197,188.044,95.394,186.072,94.585,184.069z"/>
	<path fill-rule="evenodd" clip-rule="evenodd" fill="#E6E6E5" d="M110.635,185.729c0,1.379-0.021,2.759,0.012,4.136
		c0.014,0.49-0.131,0.631-0.613,0.613c-0.436-0.016-0.646-0.066-0.643-0.597c0.029-2.757,0.027-5.515,0.002-8.272
		c-0.004-0.503,0.164-0.613,0.625-0.611c0.449,0,0.646,0.074,0.631,0.596C110.607,182.971,110.635,184.351,110.635,185.729z"/>
	<path fill-rule="evenodd" clip-rule="evenodd" fill="#E6E6E5" d="M136.502,185.103c0.719-0.939,1.361-1.353,2.236-1.294
		c0.25,0.018,0.65-0.039,0.582,0.365c-0.057,0.334,0.027,0.822-0.531,0.907c-1.904,0.288-2.139,0.569-2.139,2.528
		c0,0.703-0.021,1.408,0.008,2.109c0.021,0.491-0.012,0.776-0.654,0.771c-0.617-0.006-0.594-0.299-0.59-0.73
		c0.016-1.621-0.014-3.241,0.025-4.861c0.006-0.318-0.359-0.865,0.443-0.932C136.639,183.903,136.619,184.33,136.502,185.103z"/>
	<path fill-rule="evenodd" clip-rule="evenodd" fill="#E6E6E5" d="M145.115,160.811c0.01-1.053,0.801-1.844,1.855-1.856
		c1.07-0.013,1.93,0.84,1.92,1.903c-0.01,1.018-0.848,1.85-1.875,1.861C145.924,162.73,145.105,161.908,145.115,160.811z"/>
	<path fill-rule="evenodd" clip-rule="evenodd" fill="#E6E6E5" d="M155.355,184.998c0.713-0.838,1.379-1.287,2.295-1.186
		c0.225,0.025,0.594,0.003,0.504,0.342c-0.09,0.33,0.025,0.833-0.531,0.928c-1.955,0.33-2.135,0.547-2.135,2.527
		c0,0.705-0.029,1.412,0.008,2.115c0.027,0.517-0.055,0.766-0.676,0.764c-0.604-0.002-0.604-0.279-0.6-0.723
		c0.018-1.655-0.006-3.312,0.018-4.967c0.006-0.314-0.273-0.787,0.463-0.838C155.43,183.91,155.391,184.314,155.355,184.998z"/>
	<path fill-rule="evenodd" clip-rule="evenodd" fill="#FDFDFD" d="M37.437,180.83c-6.101,0-12.202-0.014-18.303,0.018
		c-0.763,0.004-0.996-0.199-0.963-0.965c0.239-5.561,2.877-9.762,7.271-12.984c0.419-0.309,0.84-0.648,1.315-0.839
		c0.927-0.371,1.046-0.792,0.485-1.661c-0.828-1.283-1.488-2.674-2.227-4.016c-0.249-0.451-0.512-0.928,0.114-1.25
		c0.63-0.324,0.863,0.21,1.099,0.64c0.825,1.504,1.665,3,2.449,4.524c0.256,0.499,0.485,0.543,0.989,0.35
		c5.165-1.98,10.35-1.995,15.521-0.03c0.562,0.214,0.783,0.101,1.043-0.405c0.771-1.498,1.594-2.967,2.408-4.442
		c0.236-0.427,0.482-0.971,1.104-0.626c0.601,0.332,0.33,0.834,0.089,1.275c-0.761,1.4-1.469,2.832-2.315,4.178
		c-0.467,0.744-0.221,0.961,0.421,1.332c4.277,2.47,7.218,6.002,8.432,10.859c0.269,1.076,0.32,2.173,0.345,3.281
		c0.016,0.719-0.309,0.773-0.883,0.771c-3.679-0.019-7.358-0.01-11.037-0.01C42.342,180.83,39.889,180.83,37.437,180.83z
		 M28.646,174.041c1.014-0.004,1.829-0.789,1.85-1.781c0.021-0.989-0.891-1.885-1.888-1.855c-1.011,0.031-1.79,0.84-1.779,1.848
		C26.84,173.271,27.626,174.045,28.646,174.041z M46.227,174.041c1.02,0.002,1.802-0.773,1.81-1.795c0.008-1-0.785-1.818-1.783-1.84
		c-1.008-0.023-1.893,0.852-1.881,1.859C44.383,173.246,45.211,174.039,46.227,174.041z"/>
	<path fill-rule="evenodd" clip-rule="evenodd" fill="#FDFDFD" d="M38.981,185.551c0-1.141-0.001-2.281,0.001-3.422
		c0-0.131,0.063-0.242,0.198-0.27c0.266-0.055,0.38,0.148,0.494,0.326c0.521,0.812,1.038,1.631,1.665,2.617
		c0.07-1.103-0.209-2.051,0.095-2.938c0.106,0.001,0.213,0.001,0.319,0.001c0,1.158,0.001,2.316-0.002,3.475
		c0,0.135-0.074,0.232-0.217,0.241c-0.218,0.015-0.322-0.146-0.42-0.302c-0.422-0.672-0.836-1.349-1.269-2.014
		c-0.105-0.162-0.11-0.426-0.42-0.455c-0.152,0.91,0.094,1.846-0.133,2.74C39.189,185.551,39.085,185.551,38.981,185.551z"/>
	<path fill-rule="evenodd" clip-rule="evenodd" fill="#FDFDFD" d="M56.45,185.312c0,0.139-0.018,0.26-0.18,0.269
		c-0.181,0.009-0.26-0.114-0.328-0.261c-0.156-0.334-0.094-0.83-0.653-0.869c-0.611-0.045-1.182-0.057-1.282,0.771
		c-0.023,0.196-0.152,0.466-0.427,0.336c-0.221-0.104-0.055-0.327-0.002-0.485c0.31-0.926,0.625-1.85,0.953-2.771
		c0.138-0.39,0.48-0.779,0.734-0.245C55.76,183.098,56.068,184.229,56.45,185.312z M54.904,182.442
		c-0.116,0.371-0.225,0.709-0.327,1.048c-0.048,0.16-0.213,0.355,0.014,0.477c0.218,0.115,0.483,0.105,0.704-0.004
		c0.222-0.108,0.115-0.334,0.053-0.479C55.207,183.154,55.212,182.762,54.904,182.442z"/>
	<path fill-rule="evenodd" clip-rule="evenodd" fill="#FDFDFD" d="M23.676,185.596c-0.251-0.067-0.203-0.221-0.152-0.366
		c0.359-1.038,0.692-2.086,1.094-3.107c0.187-0.475,0.559-0.375,0.714,0.022c0.399,1.022,0.732,2.07,1.094,3.108
		c0.046,0.132,0.029,0.273-0.089,0.312c-0.213,0.07-0.344-0.067-0.401-0.264c-0.14-0.479-0.253-0.93-0.943-0.869
		c-0.469,0.04-0.844,0.068-0.934,0.631C24.021,185.294,23.951,185.543,23.676,185.596z M24.944,182.334
		c-0.161,0.476-0.277,0.805-0.384,1.137c-0.052,0.163-0.195,0.359,0.011,0.486c0.215,0.133,0.481,0.107,0.706,0.015
		c0.234-0.097,0.12-0.315,0.072-0.474C25.246,183.154,25.114,182.818,24.944,182.334z"/>
	<path fill-rule="evenodd" clip-rule="evenodd" fill="#FDFDFD" d="M36.073,181.971c-0.385,0.678-1.564-0.297-1.527,0.916
		c0.033,1.077,1.028,0.229,1.393,0.717c-0.109,0.365-0.447,0.219-0.665,0.203c-0.543-0.037-0.75,0.131-0.75,0.713
		c0,0.619,0.294,0.697,0.792,0.682c0.277-0.009,0.615-0.132,0.856,0.257c-0.622,0.298-1.256,0.146-1.866,0.116
		c-0.349-0.018-0.25-0.362-0.253-0.588c-0.009-0.763,0.04-1.529-0.017-2.287c-0.05-0.67,0.138-0.984,0.849-0.875
		C35.259,181.883,35.663,181.736,36.073,181.971z"/>
	<path fill-rule="evenodd" clip-rule="evenodd" fill="#FDFDFD" d="M19.838,184.97c0.365-1.052,0.647-1.875,0.937-2.695
		c0.07-0.198,0.151-0.486,0.411-0.386c0.279,0.108,0.087,0.365,0.021,0.551c-0.317,0.895-0.643,1.787-0.963,2.68
		c-0.084,0.234-0.157,0.491-0.474,0.473c-0.277-0.016-0.306-0.272-0.37-0.467c-0.31-0.93-0.606-1.863-0.912-2.795
		c-0.056-0.171-0.185-0.37,0.064-0.461c0.223-0.08,0.317,0.108,0.377,0.295C19.207,183.021,19.485,183.877,19.838,184.97z"/>
	<path fill-rule="evenodd" clip-rule="evenodd" fill="#FDFDFD" d="M47.46,185.232c-0.843,0.588-1.797,0.498-2.392-0.129
		c-0.652-0.686-0.679-1.873-0.059-2.618c0.604-0.728,1.521-0.886,2.568-0.268c-1.553-0.116-2.695,0.14-2.47,1.858
		C45.23,185.023,45.795,185.289,47.46,185.232z"/>
	<path fill-rule="evenodd" clip-rule="evenodd" fill="#FDFDFD" d="M31.476,185.498c-0.74,0.186-1.337,0.105-1.924,0.094
		c-0.29-0.006-0.302-0.242-0.301-0.467c0.001-0.945,0-1.891,0.001-2.836c0-0.182-0.011-0.412,0.23-0.422
		c0.316-0.014,0.278,0.258,0.28,0.463c0.005,0.641,0.052,1.287-0.011,1.92c-0.079,0.781,0.224,1.057,0.973,0.947
		C30.926,185.167,31.147,185.166,31.476,185.498z"/>
	<path fill-rule="evenodd" clip-rule="evenodd" fill="#FDFDFD" d="M50.213,183.657c0-0.458-0.004-0.917,0.001-1.375
		c0.002-0.179-0.011-0.41,0.242-0.405c0.165,0.004,0.232,0.184,0.232,0.346c0.002,1.008,0.002,2.017-0.005,3.025
		c-0.001,0.158-0.073,0.314-0.26,0.308c-0.208-0.007-0.205-0.194-0.207-0.339C50.21,184.697,50.214,184.178,50.213,183.657z"/>
	<path fill-rule="evenodd" clip-rule="evenodd" fill="#93C051" d="M28.646,174.041c-1.02,0.004-1.806-0.77-1.817-1.789
		c-0.011-1.008,0.768-1.816,1.779-1.848c0.998-0.029,1.909,0.866,1.888,1.855C30.475,173.252,29.66,174.037,28.646,174.041z"/>
	<path fill-rule="evenodd" clip-rule="evenodd" fill="#93C051" d="M46.227,174.041c-1.015-0.002-1.844-0.795-1.855-1.775
		c-0.011-1.008,0.874-1.883,1.881-1.859c0.998,0.021,1.791,0.84,1.783,1.84C48.028,173.268,47.247,174.043,46.227,174.041z"/>
	<path fill-rule="evenodd" clip-rule="evenodd" fill="#93C051" d="M54.904,182.442c0.308,0.319,0.303,0.712,0.444,1.041
		c0.062,0.146,0.169,0.371-0.053,0.479c-0.221,0.109-0.486,0.119-0.704,0.004c-0.227-0.121-0.062-0.316-0.014-0.477
		C54.679,183.151,54.788,182.813,54.904,182.442z"/>
	<path fill-rule="evenodd" clip-rule="evenodd" fill="#93C051" d="M24.944,182.334c0.17,0.484,0.302,0.82,0.405,1.164
		c0.047,0.158,0.162,0.377-0.072,0.474c-0.225,0.093-0.491,0.118-0.706-0.015c-0.207-0.127-0.063-0.323-0.011-0.486
		C24.667,183.139,24.783,182.81,24.944,182.334z"/>
</g>
</svg>
